<svg width="13" height="13" viewBox="0 0 13 13" fill="none" xmlns="http://www.w3.org/2000/svg">
<path d="M12.5196 4.73401C12.8065 5.82606 12.8065 6.91799 12.5196 8.01004C12.2326 9.10219 11.6812 10.0563 10.8651 10.873C10.0491 11.6895 9.09545 12.2415 8.00418 12.5286C6.91291 12.8158 5.82175 12.8158 4.7304 12.5287C3.63899 12.2415 2.68534 11.6896 1.86937 10.8731C1.05337 10.0565 0.502001 9.10225 0.214903 8.01016C-0.0719711 6.91813 -0.0719714 5.8262 0.214923 4.73407C0.50194 3.64198 1.05341 2.68771 1.86942 1.87114C2.68542 1.05456 3.63911 0.502626 4.7304 0.215449C5.82158 -0.0717482 6.91287 -0.071583 8.00412 0.215511C9.09539 0.502748 10.049 1.05468 10.865 1.87122C11.681 2.68781 12.2326 3.64214 12.5196 4.73401ZM10.2091 10.2166C11.1774 9.24771 11.7025 8.08143 11.7845 6.71793L11.6089 6.6887C11.5386 6.67689 11.3864 6.67113 11.1521 6.67102C10.9179 6.67104 10.6787 6.68759 10.4347 6.7208C10.1906 6.7541 9.88225 6.82237 9.50928 6.92599C9.13639 7.02953 8.76445 7.16522 8.39352 7.33327C8.77235 8.61093 9.03789 9.8377 9.1901 11.0137C9.57277 10.7792 9.9124 10.5135 10.2091 10.2166ZM5.7408 11.7698C6.58793 11.8674 7.40783 11.7737 8.20043 11.4884C8.04035 10.3593 7.77866 9.14419 7.41563 7.84313C5.91635 8.71831 4.57719 9.74582 3.39812 10.9258C4.11265 11.3907 4.89358 11.6721 5.7408 11.7698ZM1.39784 8.57265C1.66525 9.18411 2.04113 9.73215 2.52532 10.2167C2.58 10.2714 2.62302 10.3104 2.65418 10.3339C4.06762 8.91946 5.56298 7.78631 7.1404 6.93465C7.02331 6.56738 6.91008 6.24699 6.80071 5.97345C6.7771 5.98147 6.74317 5.99793 6.69823 6.02333C6.6532 6.04884 6.62112 6.0674 6.6014 6.0792L6.30864 6.21981C6.10552 6.31362 5.8175 6.41427 5.4448 6.52169C5.07184 6.62896 4.65905 6.72575 4.20609 6.81168C3.7531 6.89758 3.23186 6.93277 2.64224 6.917C2.0527 6.9014 1.48666 6.81749 0.943973 6.66513C0.979092 7.32541 1.13052 7.96135 1.39784 8.57265ZM2.52532 2.52745C1.61167 3.44174 1.08853 4.55138 0.955708 5.85632L0.979112 5.7039C1.41647 5.8681 1.90646 5.95606 2.44917 5.96766C2.99184 5.9793 3.47119 5.94719 3.88705 5.87106C4.30274 5.79476 4.73023 5.68732 5.1697 5.54876C5.60882 5.40997 5.90165 5.30859 6.04803 5.24389C6.19445 5.17939 6.31069 5.12768 6.39662 5.08866L6.41416 5.08289L6.42596 5.07109C5.80505 3.68421 5.10624 2.43765 4.32921 1.33201C3.64194 1.61323 3.04081 2.01173 2.52532 2.52745ZM7.52406 1.05924C6.78801 0.900977 6.05676 0.892192 5.33079 1.03282C6.06856 2.09174 6.73449 3.25798 7.32779 4.53171C8.22593 3.87546 8.96763 3.01972 9.55338 1.96488C8.93646 1.5195 8.25988 1.21757 7.52406 1.05924ZM10.2033 2.63884C10.172 2.68566 10.132 2.74342 10.0831 2.81172C10.0343 2.88001 9.97476 2.96317 9.90446 3.06085C9.83429 3.15842 9.7531 3.265 9.66144 3.3802C9.56967 3.49548 9.4701 3.61655 9.36263 3.74363C9.25535 3.87061 9.13812 4.0034 9.01135 4.14209C8.88427 4.28091 8.7526 4.41859 8.61592 4.55536C8.47939 4.69199 8.33182 4.83174 8.17382 4.97432C8.01585 5.11701 7.85663 5.24867 7.69661 5.3698C7.70437 5.40117 7.72199 5.44803 7.74935 5.51056C7.77667 5.573 7.79809 5.62005 7.81395 5.65107C7.90365 5.88949 8.0032 6.16108 8.11237 6.46587C8.49118 6.30574 8.87383 6.17474 9.26054 6.07304C9.64702 5.97158 9.96891 5.90326 10.2267 5.868C10.4845 5.83292 10.7412 5.81243 10.9969 5.80656C11.2527 5.80063 11.4243 5.80266 11.5123 5.81231C11.6003 5.82212 11.6851 5.83285 11.767 5.84455L11.7788 5.84458C11.6539 4.5787 11.1445 3.48659 10.2502 2.56849L10.2033 2.63884Z" fill="white"/>
</svg>
