<svg width="160" height="48" viewBox="0 0 160 48" fill="none" xmlns="http://www.w3.org/2000/svg">
<g clip-path="url(#clip0_31730_133)">
<mask id="mask0_31730_133" style="mask-type:luminance" maskUnits="userSpaceOnUse" x="0" y="0" width="188" height="48">
<path d="M187.259 0H0V47.4074H187.259V0Z" fill="white"/>
</mask>
<g mask="url(#mask0_31730_133)">
<mask id="mask1_31730_133" style="mask-type:luminance" maskUnits="userSpaceOnUse" x="0" y="-3" width="188" height="34">
<path d="M187.259 -2.60742H0V30.1037H187.259V-2.60742Z" fill="white"/>
</mask>
<g mask="url(#mask1_31730_133)">
<mask id="mask2_31730_133" style="mask-type:luminance" maskUnits="userSpaceOnUse" x="-26" y="-60" width="716" height="457">
<path d="M-25.6001 -59.2593H689.619V396.8H-25.6001V-59.2593Z" fill="white"/>
</mask>
<g mask="url(#mask2_31730_133)">
<path d="M33.4452 15.9274C32.4791 17.1951 31.5703 18.4002 30.6404 19.5889C30.5539 19.6995 30.3353 19.7542 30.1777 19.7548C27.0177 19.7687 23.858 19.7693 20.6981 19.7779C20.3021 19.7788 19.9051 19.7946 19.5107 19.8291C18.8973 19.8822 18.5591 20.2131 18.5278 20.757C18.4953 21.3237 18.7607 21.666 19.3742 21.7987C19.6295 21.854 19.8973 21.8739 20.1593 21.8745C22.8637 21.8812 25.568 21.8768 28.2721 21.8831C29.6517 21.8866 30.9966 22.0509 32.2174 22.7712C33.1726 23.3347 33.7301 24.177 33.8216 25.26C33.8802 25.9526 33.8394 26.6725 33.7154 27.3571C33.476 28.6778 32.6611 29.5873 31.4489 30.1446C30.4462 30.6054 29.3843 30.8358 28.2873 30.8384C23.4816 30.8498 18.6754 30.8413 13.8695 30.8389C13.8266 30.8389 13.7839 30.8254 13.6875 30.809C13.7523 30.6981 13.7965 30.5995 13.8607 30.5156C14.6736 29.456 15.4944 28.4026 16.299 27.3364C16.4586 27.1248 16.6309 27.0548 16.8903 27.0556C20.4766 27.0603 24.0628 27.0577 27.6487 27.0482C27.9839 27.0473 28.3266 27.0214 28.6521 26.9477C29.2117 26.8211 29.4744 26.4345 29.4592 25.8502C29.4459 25.3501 29.1809 25.0353 28.6244 24.9289C28.3105 24.8689 27.9844 24.8509 27.6632 24.8499C24.9297 24.8426 22.1959 24.8542 19.4621 24.8359C18.445 24.8291 17.4453 24.675 16.4975 24.2697C15.1954 23.7124 14.3787 22.756 14.1682 21.3502C13.9277 19.7456 14.2725 18.3057 15.5724 17.2226C16.4093 16.5251 17.4279 16.2179 18.4855 16.0728C19.2392 15.9698 20.0053 15.9094 20.7661 15.9075C24.8958 15.8965 29.0257 15.9094 33.1558 15.9148C33.226 15.9148 33.2961 15.9208 33.4452 15.9274Z" fill="#4640DE"/>
<path d="M45.2401 22.8831C45.2062 26.7954 44.5053 29.9883 43.0515 33.0101C42.8081 33.5164 42.6109 33.6513 42.0816 33.4427C41.5165 33.2198 40.9462 32.9361 40.4801 32.555C39.7446 31.9531 39.0892 31.2527 38.4153 30.5785C38.344 30.5072 38.325 30.3078 38.3696 30.2066C39.403 27.8597 39.9039 25.4092 39.7984 22.8455C39.6726 19.7849 38.7597 16.9758 37.0275 14.4427C35.7342 12.5515 34.1147 10.9921 32.1592 9.79644C30.4544 8.75412 28.6219 8.02056 26.6478 7.66974C26.3888 7.62362 26.2456 7.51299 26.2138 7.26363C26.0607 6.04557 25.9047 4.82784 25.7672 3.60821C25.745 3.41036 25.7945 3.19956 25.836 3.00012C26.0209 2.11139 26.1169 2.04976 27.0112 2.19704C32.2798 3.06523 36.6356 5.54274 40.099 9.59671C42.6659 12.6017 44.2948 16.0511 44.9414 19.9448C45.1329 21.0981 45.1806 22.275 45.2401 22.8831Z" fill="#4640DE"/>
<path d="M2.18115 23.0567C2.53577 15.7339 5.60175 9.59649 12.034 5.33457C15.1449 3.2736 18.6126 2.14405 22.3489 1.85676C22.8539 1.81788 23.1185 2.06756 23.1488 2.46073C23.2076 3.22588 23.2319 4.00906 23.1321 4.76632C23.0334 5.51502 22.7519 6.23846 22.5752 6.97896C22.5136 7.23719 22.395 7.32473 22.1352 7.35223C19.9646 7.58327 17.9034 8.18629 15.9988 9.26149C11.3779 11.8702 8.67564 15.8198 7.83497 21.0406C7.41145 23.6695 7.71043 26.2399 8.55144 28.7584C8.60043 28.9052 8.58336 29.1612 8.4876 29.2553C7.56474 30.1643 6.57929 31.0027 5.40866 31.5797C5.06225 31.7503 4.66308 31.839 4.27782 31.8925C4.14098 31.9115 3.88908 31.7489 3.83314 31.6112C2.98296 29.5222 2.43114 27.3595 2.2924 25.1012C2.25669 24.516 2.22856 23.93 2.18115 23.0567Z" fill="#4640DE"/>
</g>
<path d="M47.5332 34.5125V17.2089H49.4013V19.208H49.6307C49.7727 18.9896 49.9692 18.711 50.2205 18.3723C50.4772 18.0282 50.8432 17.7224 51.3184 17.4547C51.7992 17.1816 52.4491 17.0451 53.2683 17.0451C54.3281 17.0451 55.262 17.31 56.0703 17.8398C56.8789 18.3696 57.5096 19.1206 57.9631 20.0929C58.4163 21.0651 58.6431 22.2122 58.6431 23.534C58.6431 24.8668 58.4163 26.0219 57.9631 26.9996C57.5096 27.972 56.8815 28.7257 56.0786 29.261C55.2758 29.7907 54.3499 30.0555 53.3013 30.0555C52.4927 30.0555 51.8456 29.9218 51.3595 29.6542C50.8733 29.3811 50.4992 29.0725 50.2371 28.7283C49.9749 28.3787 49.7727 28.0893 49.6307 27.8598H49.4669V34.5125H47.5332ZM49.434 23.5012C49.434 24.4515 49.5734 25.2901 49.8519 26.0164C50.1304 26.7375 50.5374 27.3028 51.0726 27.7124C51.6079 28.1166 52.2635 28.3187 53.0391 28.3187C53.8474 28.3187 54.522 28.1057 55.0627 27.6797C55.6088 27.2481 56.0187 26.6692 56.2917 25.9427C56.5702 25.2107 56.7094 24.397 56.7094 23.5012C56.7094 22.6163 56.5728 21.8189 56.2998 21.1088C56.0322 20.3933 55.6252 19.828 55.079 19.4129C54.5384 18.9923 53.8583 18.782 53.0391 18.782C52.2524 18.782 51.5915 18.9814 51.0563 19.3801C50.5211 19.7734 50.1169 20.325 49.8436 21.0351C49.5705 21.7397 49.434 22.5617 49.434 23.5012ZM61.5926 29.7934V17.2089H63.4607V19.1097H63.5918C63.821 18.487 64.2363 17.9818 64.8369 17.594C65.4378 17.2062 66.115 17.0123 66.8688 17.0123C67.0108 17.0123 67.1883 17.015 67.4014 17.0205C67.6145 17.026 67.7755 17.0342 67.8847 17.0451V19.0114C67.8193 18.995 67.669 18.9704 67.4341 18.9377C67.2047 18.8994 66.9617 18.8803 66.705 18.8803C66.0932 18.8803 65.5471 19.0087 65.0664 19.2654C64.5911 19.5166 64.2142 19.8662 63.9357 20.3141C63.6626 20.7565 63.5261 21.2618 63.5261 21.8298V29.7934H61.5926ZM70.1769 29.7934V17.2089H72.1104V29.7934H70.1769ZM71.1599 15.1115C70.783 15.1115 70.458 14.9832 70.1849 14.7265C69.9173 14.4697 69.7836 14.1611 69.7836 13.8006C69.7836 13.4401 69.9173 13.1315 70.1849 12.8748C70.458 12.6181 70.783 12.4897 71.1599 12.4897C71.5368 12.4897 71.8591 12.6181 72.1267 12.8748C72.3998 13.1315 72.5363 13.4401 72.5363 13.8006C72.5363 14.1611 72.3998 14.4697 72.1267 14.7265C71.8591 14.9832 71.5368 15.1115 71.1599 15.1115ZM77.5855 22.2231V29.7934H75.6517V17.2089H77.5198V19.1753H77.6836C77.9787 18.5362 78.4265 18.0228 79.0274 17.635C79.6283 17.2417 80.4038 17.0451 81.3541 17.0451C82.2063 17.0451 82.9517 17.2199 83.5908 17.5694C84.2299 17.9135 84.7269 18.4379 85.082 19.1425C85.4371 19.8416 85.6146 20.7265 85.6146 21.7971V29.7934H83.6809V21.9281C83.6809 20.9395 83.4242 20.1694 82.9107 19.6177C82.3973 19.0606 81.6928 18.782 80.7971 18.782C80.1798 18.782 79.6283 18.9158 79.1421 19.1835C78.6614 19.4511 78.2819 19.8416 78.0031 20.3551C77.7246 20.8685 77.5855 21.4912 77.5855 22.2231ZM94.6208 17.2089V18.8476H88.099V17.2089H94.6208ZM89.9998 14.1939H91.9333V26.1885C91.9333 26.7346 92.0127 27.1445 92.1711 27.4175C92.3349 27.6851 92.5425 27.8653 92.7938 27.9582C93.0505 28.0457 93.3207 28.0893 93.6049 28.0893C93.8178 28.0893 93.9927 28.0784 94.1292 28.0566C94.2658 28.0293 94.375 28.0073 94.4568 27.9909L94.8501 29.7279C94.719 29.777 94.536 29.8263 94.3013 29.8754C94.0664 29.9299 93.7687 29.9574 93.4082 29.9574C92.862 29.9574 92.3268 29.8398 91.8022 29.6049C91.2834 29.3702 90.852 29.0123 90.5078 28.5316C90.1693 28.0511 89.9998 27.4448 89.9998 26.7128V14.1939ZM102.67 30.0555C101.458 30.0555 100.412 29.7879 99.5325 29.2527C98.6585 28.712 97.9839 27.9582 97.5087 26.9913C97.0391 26.0193 96.8042 24.8886 96.8042 23.5995C96.8042 22.3105 97.0391 21.1744 97.5087 20.1912C97.9839 19.2026 98.6448 18.4324 99.4915 17.8808C100.344 17.3236 101.338 17.0451 102.474 17.0451C103.129 17.0451 103.776 17.1543 104.415 17.3728C105.055 17.5913 105.636 17.9463 106.161 18.4379C106.685 18.924 107.103 19.5685 107.414 20.3715C107.725 21.1744 107.881 22.163 107.881 23.3373V24.1566H98.1807V22.4853H105.915C105.915 21.7752 105.773 21.1416 105.489 20.5845C105.21 20.0273 104.812 19.5877 104.293 19.2654C103.779 18.9431 103.173 18.782 102.474 18.782C101.704 18.782 101.037 18.9732 100.475 19.3555C99.9174 19.7324 99.4889 20.224 99.1883 20.8303C98.888 21.4365 98.7377 22.0865 98.7377 22.7802V23.8945C98.7377 24.845 98.9015 25.6504 99.2293 26.3115C99.5626 26.9669 100.024 27.4666 100.614 27.8108C101.204 28.1493 101.889 28.3187 102.67 28.3187C103.178 28.3187 103.637 28.2476 104.047 28.1057C104.462 27.9582 104.82 27.7397 105.12 27.4502C105.42 27.1554 105.653 26.7894 105.817 26.3523L107.684 26.8766C107.488 27.5102 107.157 28.0675 106.693 28.5482C106.229 29.0232 105.655 29.3947 104.973 29.6623C104.29 29.9244 103.523 30.0555 102.67 30.0555ZM110.823 29.7934V17.2089H112.69V19.1097H112.821C113.051 18.487 113.466 17.9818 114.067 17.594C114.668 17.2062 115.345 17.0123 116.099 17.0123C116.241 17.0123 116.418 17.015 116.631 17.0205C116.844 17.026 117.005 17.0342 117.115 17.0451V19.0114C117.049 18.995 116.899 18.9704 116.664 18.9377C116.435 18.8994 116.192 18.8803 115.935 18.8803C115.323 18.8803 114.777 19.0087 114.296 19.2654C113.821 19.5166 113.444 19.8662 113.166 20.3141C112.893 20.7565 112.756 21.2618 112.756 21.8298V29.7934H110.823ZM128.321 20.0273L126.584 20.5189C126.475 20.2294 126.313 19.9481 126.101 19.6751C125.893 19.3965 125.609 19.1671 125.248 18.9868C124.888 18.8066 124.426 18.7164 123.864 18.7164C123.093 18.7164 122.452 18.894 121.938 19.249C121.43 19.5986 121.176 20.0437 121.176 20.5845C121.176 21.0651 121.351 21.4447 121.701 21.7233C122.05 22.0019 122.597 22.234 123.339 22.4197L125.207 22.8785C126.333 23.1516 127.171 23.5695 127.723 24.132C128.274 24.6892 128.55 25.4075 128.55 26.2869C128.55 27.0079 128.343 27.6524 127.927 28.2204C127.518 28.7886 126.944 29.2363 126.207 29.5641C125.47 29.8917 124.612 30.0555 123.634 30.0555C122.351 30.0555 121.288 29.777 120.447 29.22C119.606 28.6629 119.074 27.8489 118.85 26.7785L120.685 26.3196C120.86 26.9968 121.19 27.5048 121.676 27.8435C122.168 28.1822 122.81 28.3515 123.601 28.3515C124.503 28.3515 125.218 28.1604 125.748 27.7781C126.284 27.3903 126.551 26.9259 126.551 26.3852C126.551 25.9481 126.398 25.5822 126.092 25.2873C125.786 24.987 125.317 24.763 124.683 24.6155L122.586 24.1239C121.433 23.8508 120.587 23.4275 120.046 22.854C119.51 22.275 119.243 21.5512 119.243 20.6828C119.243 19.9727 119.442 19.3446 119.841 18.7984C120.245 18.2522 120.794 17.8234 121.488 17.5121C122.187 17.2007 122.979 17.0451 123.864 17.0451C125.109 17.0451 126.087 17.3182 126.797 17.8644C127.512 18.4106 128.02 19.1316 128.321 20.0273Z" fill="#4640DE"/>
</g>
<mask id="mask3_31730_133" style="mask-type:luminance" maskUnits="userSpaceOnUse" x="46" y="33" width="114" height="20">
<path d="M160 33.6593H46.6963V52.6223H160V33.6593Z" fill="white"/>
</mask>
<g mask="url(#mask3_31730_133)">
<path d="M20.2739 38.0682V20.7646H22.1419V22.7637H22.3713C22.5134 22.5452 22.71 22.2667 22.9613 21.928C23.218 21.5839 23.5839 21.278 24.0591 21.0104C24.5398 20.7373 25.1898 20.6007 26.009 20.6007C27.0688 20.6007 28.0027 20.8657 28.811 21.3955C29.6195 21.9253 30.2503 22.6763 30.7037 23.6486C31.1569 24.6208 31.3838 25.7679 31.3838 27.0896C31.3838 28.4224 31.1569 29.5775 30.7037 30.5553C30.2503 31.5276 29.6221 32.2814 28.8193 32.8166C28.0164 33.3464 27.0906 33.6112 26.0419 33.6112C25.2334 33.6112 24.5863 33.4775 24.1001 33.2099C23.614 32.9368 23.2398 32.6282 22.9776 32.284C22.7155 31.9344 22.5134 31.645 22.3713 31.4155H22.2075V38.0682H20.2739ZM22.1747 27.0569C22.1747 28.0072 22.314 28.8458 22.5926 29.5721C22.8711 30.2931 23.278 30.8585 23.8133 31.2681C24.3485 31.6722 25.0042 31.8744 25.7798 31.8744C26.588 31.8744 27.2627 31.6613 27.8033 31.2354C28.3495 30.8037 28.7593 30.2249 29.0324 29.4984C29.3109 28.7664 29.45 27.9526 29.45 27.0569C29.45 26.172 29.3135 25.3746 29.0404 24.6645C28.7728 23.9491 28.3658 23.3837 27.8197 22.9685C27.279 22.548 26.599 22.3377 25.7798 22.3377C24.993 22.3377 24.3322 22.537 23.7969 22.9358C23.2617 23.329 22.8575 23.8806 22.5844 24.5907C22.3113 25.2954 22.1747 26.1175 22.1747 27.0569ZM34.3332 33.349V20.7646H36.2013V22.6654H36.3324C36.5616 22.0427 36.9769 21.5375 37.5776 21.1497C38.1784 20.7619 38.8557 20.568 39.6094 20.568C39.7514 20.568 39.929 20.5707 40.1421 20.5762C40.3552 20.5816 40.5161 20.5898 40.6254 20.6007V22.5671C40.56 22.5507 40.4097 22.5261 40.1748 22.4933C39.9453 22.4551 39.7024 22.436 39.4456 22.436C38.8339 22.436 38.2877 22.5643 37.807 22.8211C37.3317 23.0723 36.9549 23.4219 36.6763 23.8697C36.4033 24.3122 36.2667 24.8173 36.2667 25.3855V33.349H34.3332ZM42.9175 33.349V20.7646H44.851V33.349H42.9175ZM43.9005 18.6672C43.5236 18.6672 43.1987 18.5388 42.9256 18.2821C42.658 18.0254 42.5243 17.7168 42.5243 17.3563C42.5243 16.9958 42.658 16.6872 42.9256 16.4305C43.1987 16.1738 43.5236 16.0454 43.9005 16.0454C44.2774 16.0454 44.5998 16.1738 44.8674 16.4305C45.1405 16.6872 45.277 16.9958 45.277 17.3563C45.277 17.7168 45.1405 18.0254 44.8674 18.2821C44.5998 18.5388 44.2774 18.6672 43.9005 18.6672ZM50.3261 25.7788V33.349H48.3924V20.7646H50.2605V22.7309H50.4243C50.7194 22.0919 51.1671 21.5784 51.768 21.1906C52.3689 20.7974 53.1445 20.6007 54.0948 20.6007C54.9469 20.6007 55.6924 20.7755 56.3315 21.1251C56.9705 21.4692 57.4676 21.9936 57.8227 22.6982C58.1777 23.3973 58.3553 24.2821 58.3553 25.3528V33.349H56.4215V25.4839C56.4215 24.4952 56.1648 23.7251 55.6514 23.1734C55.138 22.6162 54.4335 22.3377 53.5377 22.3377C52.9205 22.3377 52.3689 22.4715 51.8827 22.7391C51.402 23.0068 51.0225 23.3973 50.7438 23.9107C50.4653 24.4241 50.3261 25.0468 50.3261 25.7788ZM67.3615 20.7646V22.4032H60.8397V20.7646H67.3615ZM62.7405 17.7496H64.674V29.7442C64.674 30.2903 64.7534 30.7001 64.9117 30.9732C65.0755 31.2408 65.2832 31.421 65.5344 31.5139C65.7911 31.6013 66.0613 31.645 66.3456 31.645C66.5584 31.645 66.7333 31.6341 66.8699 31.6122C67.0064 31.585 67.1157 31.5629 67.1975 31.5466L67.5907 33.2836C67.4596 33.3327 67.2766 33.382 67.042 33.431C66.8071 33.4856 66.5093 33.513 66.1488 33.513C65.6027 33.513 65.0674 33.3955 64.5429 33.1606C64.024 32.9259 63.5926 32.568 63.2484 32.0873C62.9099 31.6068 62.7405 31.0005 62.7405 30.2685V17.7496ZM75.411 33.6112C74.1986 33.6112 73.1525 33.3436 72.2731 32.8083C71.3992 32.2677 70.7246 31.5139 70.2493 30.547C69.7797 29.5749 69.5448 28.4442 69.5448 27.1552C69.5448 25.8662 69.7797 24.7301 70.2493 23.7469C70.7246 22.7583 71.3854 21.9881 72.2321 21.4364C73.0843 20.8793 74.0784 20.6007 75.2145 20.6007C75.8699 20.6007 76.517 20.71 77.1561 20.9285C77.7952 21.1469 78.3768 21.502 78.9012 21.9936C79.4257 22.4797 79.8434 23.1242 80.1549 23.927C80.4661 24.7301 80.6218 25.7186 80.6218 26.8931V27.7123H70.9213V26.0409H78.6556C78.6556 25.3308 78.5134 24.6972 78.2294 24.1401C77.9509 23.583 77.5522 23.1433 77.0333 22.8211C76.5199 22.4988 75.9136 22.3377 75.2145 22.3377C74.4442 22.3377 73.7778 22.5288 73.2154 22.9112C72.6581 23.2881 72.2295 23.7796 71.929 24.3859C71.6286 24.9923 71.4784 25.6422 71.4784 26.3358V27.4501C71.4784 28.4006 71.6421 29.2061 71.97 29.8672C72.3032 30.5226 72.7648 31.0223 73.3545 31.3664C73.9445 31.7049 74.63 31.8744 75.411 31.8744C75.919 31.8744 76.3779 31.8033 76.7875 31.6613C77.2026 31.5139 77.5603 31.2953 77.8608 31.0059C78.1611 30.711 78.3932 30.3451 78.5572 29.908L80.4251 30.4323C80.2286 31.0659 79.8981 31.6232 79.4338 32.1039C78.9697 32.5789 78.396 32.9503 77.7134 33.2179C77.0305 33.4801 76.2632 33.6112 75.411 33.6112ZM83.5632 33.349V20.7646H85.4311V22.6654H85.5621C85.7916 22.0427 86.2066 21.5375 86.8075 21.1497C87.4084 20.7619 88.0856 20.568 88.8394 20.568C88.9814 20.568 89.159 20.5707 89.372 20.5762C89.5849 20.5816 89.7461 20.5898 89.8554 20.6007V22.5671C89.7899 22.5507 89.6397 22.5261 89.4048 22.4933C89.1753 22.4551 88.9323 22.436 88.6756 22.436C88.0638 22.436 87.5177 22.5643 87.037 22.8211C86.5617 23.0723 86.1848 23.4219 85.9063 23.8697C85.6333 24.3122 85.4967 24.8173 85.4967 25.3855V33.349H83.5632ZM101.062 23.583L99.3245 24.0747C99.2152 23.785 99.0541 23.5038 98.8412 23.2307C98.6336 22.9521 98.3496 22.7227 97.9891 22.5425C97.6285 22.3623 97.167 22.2721 96.6043 22.2721C95.8341 22.2721 95.1925 22.4496 94.6791 22.8047C94.1711 23.1542 93.917 23.5994 93.917 24.1401C93.917 24.6208 94.0919 25.0003 94.4413 25.2789C94.7909 25.5576 95.3373 25.7897 96.08 25.9753L97.948 26.4342C99.0733 26.7072 99.9117 27.1251 100.463 27.6876C101.015 28.2449 101.291 28.9631 101.291 29.8425C101.291 30.5636 101.083 31.2081 100.668 31.776C100.258 32.3442 99.6851 32.792 98.9476 33.1198C98.2102 33.4474 97.3526 33.6112 96.3751 33.6112C95.0915 33.6112 94.0291 33.3327 93.1879 32.7756C92.3469 32.2186 91.8142 31.4046 91.5902 30.3341L93.4256 29.8752C93.6003 30.5525 93.9307 31.0604 94.4169 31.3992C94.9085 31.7379 95.5502 31.9071 96.3421 31.9071C97.2436 31.9071 97.9589 31.7161 98.4887 31.3337C99.0242 30.9459 99.2918 30.4816 99.2918 29.9409C99.2918 29.5038 99.1387 29.1378 98.8329 28.8429C98.5271 28.5426 98.0573 28.3186 97.4237 28.1712L95.3262 27.6796C94.1737 27.4065 93.3272 26.9832 92.7863 26.4095C92.2511 25.8307 91.9835 25.107 91.9835 24.2385C91.9835 23.5284 92.1828 22.9003 92.5815 22.3541C92.9859 21.8079 93.5347 21.3791 94.2285 21.0678C94.9275 20.7564 95.7197 20.6007 96.6043 20.6007C97.8497 20.6007 98.8274 20.8739 99.5376 21.42C100.253 21.9662 100.761 22.6872 101.062 23.583Z" fill="#4640DE"/>
<path d="M47.5073 42.4282V36.2221H52.3882V42.4282H51.4346V37.111H48.4609V42.4282H47.5073ZM56.7316 42.5577C56.1336 42.5577 55.6178 42.4256 55.184 42.1616C54.7531 41.8949 54.4205 41.5232 54.1861 41.0465C53.9545 40.567 53.8386 40.0095 53.8386 39.3738C53.8386 38.738 53.9545 38.1777 54.1861 37.6929C54.4205 37.2054 54.7464 36.8256 55.1639 36.5535C55.5841 36.2788 56.0743 36.1413 56.6347 36.1413C56.9578 36.1413 57.277 36.1953 57.5921 36.303C57.9073 36.4108 58.1941 36.5857 58.4527 36.8282C58.7114 37.0681 58.9173 37.3857 59.0709 37.7818C59.2245 38.1777 59.3013 38.6653 59.3013 39.2443V39.6485H54.5175V38.8243H58.3316C58.3316 38.474 58.2615 38.1616 58.1214 37.8868C57.9841 37.6121 57.7874 37.3952 57.5316 37.2364C57.2785 37.0774 56.9793 36.998 56.6347 36.998C56.2547 36.998 55.9262 37.0923 55.6488 37.2807C55.3741 37.4666 55.1624 37.7091 55.0143 38.008C54.8661 38.3071 54.7922 38.6276 54.7922 38.9696V39.5191C54.7922 39.9879 54.873 40.3852 55.0347 40.7111C55.1989 41.0342 55.4265 41.2807 55.7173 41.4505C56.0084 41.6176 56.3464 41.701 56.7316 41.701C56.9822 41.701 57.2083 41.6659 57.4103 41.596C57.6151 41.5232 57.7914 41.4154 57.9396 41.2727C58.0877 41.1274 58.2022 40.9468 58.283 40.7313L59.2044 40.9899C59.1074 41.3023 58.9444 41.577 58.7154 41.8141C58.4864 42.0485 58.2036 42.2317 57.867 42.3635C57.5302 42.4929 57.1519 42.5577 56.7316 42.5577ZM60.7518 44.7555V36.2221H61.6729V37.208H61.7862C61.8561 37.1003 61.9531 36.9629 62.077 36.796C62.2036 36.6263 62.384 36.4755 62.6184 36.3435C62.8555 36.2089 63.1759 36.1413 63.5801 36.1413C64.1025 36.1413 64.5633 36.2721 64.9618 36.5334C65.3605 36.7946 65.6717 37.1651 65.8952 37.6443C66.1188 38.1239 66.2306 38.6894 66.2306 39.3413C66.2306 39.9986 66.1188 40.5684 65.8952 41.0506C65.6717 41.5299 65.3619 41.9018 64.9658 42.1656C64.57 42.4268 64.1134 42.5577 63.5962 42.5577C63.1975 42.5577 62.8785 42.4915 62.6386 42.3595C62.3989 42.2249 62.2143 42.0727 62.0851 41.903C61.9559 41.7306 61.8561 41.5879 61.7862 41.4746H61.7054V44.7555H60.7518ZM61.6892 39.3252C61.6892 39.794 61.7578 40.2074 61.8952 40.5656C62.0325 40.9211 62.2332 41.1999 62.4973 41.4021C62.7611 41.6014 63.0844 41.701 63.467 41.701C63.8655 41.701 64.1983 41.596 64.465 41.3857C64.7342 41.1731 64.9362 40.8875 65.0711 40.5293C65.2083 40.1683 65.277 39.767 65.277 39.3252C65.277 38.8888 65.2097 38.4955 65.0751 38.1454C64.9431 37.7925 64.7423 37.5137 64.473 37.3092C64.2063 37.1018 63.8709 36.998 63.467 36.998C63.079 36.998 62.7531 37.0963 62.4892 37.2928C62.2252 37.487 62.0258 37.7588 61.8912 38.1092C61.7566 38.4564 61.6892 38.862 61.6892 39.3252ZM70.2871 42.5577C69.6892 42.5577 69.1732 42.4256 68.7397 42.1616C68.3087 41.8949 67.9759 41.5232 67.7417 41.0465C67.5099 40.567 67.3943 40.0095 67.3943 39.3738C67.3943 38.738 67.5099 38.1777 67.7417 37.6929C67.9759 37.2054 68.3019 36.8256 68.7195 36.5535C69.1396 36.2788 69.63 36.1413 70.1901 36.1413C70.5134 36.1413 70.8325 36.1953 71.1477 36.303C71.463 36.4108 71.7498 36.5857 72.0084 36.8282C72.267 37.0681 72.473 37.3857 72.6266 37.7818C72.78 38.1777 72.8568 38.6653 72.8568 39.2443V39.6485H68.0729V38.8243H71.8871C71.8871 38.474 71.8171 38.1616 71.677 37.8868C71.5396 37.6121 71.3431 37.3952 71.0871 37.2364C70.8339 37.0774 70.535 36.998 70.1901 36.998C69.8104 36.998 69.4818 37.0923 69.2043 37.2807C68.9295 37.4666 68.7181 37.7091 68.57 38.008C68.4218 38.3071 68.3476 38.6276 68.3476 38.9696V39.5191C68.3476 39.9879 68.4284 40.3852 68.5901 40.7111C68.7544 41.0342 68.9822 41.2807 69.273 41.4505C69.5639 41.6176 69.9019 41.701 70.2871 41.701C70.5376 41.701 70.764 41.6659 70.9659 41.596C71.1707 41.5232 71.3471 41.4154 71.4952 41.2727C71.6434 41.1274 71.7579 40.9468 71.8387 40.7313L72.7598 40.9899C72.6629 41.3023 72.5 41.577 72.2711 41.8141C72.0421 42.0485 71.7593 42.2317 71.4225 42.3635C71.0859 42.4929 70.7073 42.5577 70.2871 42.5577ZM74.3074 42.4282V36.2221H76.8447C77.5127 36.2221 78.0434 36.3731 78.4366 36.6746C78.8299 36.9764 79.0266 37.3751 79.0266 37.8707C79.0266 38.2478 78.9147 38.5401 78.6912 38.7475C78.4677 38.9521 78.1806 39.091 77.8305 39.1635C78.0595 39.196 78.2818 39.2768 78.4973 39.406C78.7154 39.5354 78.8958 39.7132 79.0387 39.9393C79.1814 40.1629 79.2527 40.4376 79.2527 40.7635C79.2527 41.0814 79.1719 41.3656 79.0103 41.6161C78.8488 41.8667 78.617 42.0646 78.3155 42.2102C78.0138 42.3555 77.6527 42.4282 77.2325 42.4282H74.3074ZM75.2124 41.5555H77.2325C77.5612 41.5555 77.8184 41.4775 78.0043 41.3213C78.1901 41.1651 78.283 40.9522 78.283 40.6829C78.283 40.3622 78.1901 40.1105 78.0043 39.9273C77.8184 39.7414 77.5612 39.6485 77.2325 39.6485H75.2124V41.5555ZM75.2124 38.8243H76.8447C77.1007 38.8243 77.3202 38.7892 77.5032 38.7191C77.6864 38.6465 77.8265 38.5441 77.9234 38.4121C78.0232 38.2775 78.073 38.1184 78.073 37.9354C78.073 37.674 77.964 37.4694 77.7457 37.3213C77.5276 37.1703 77.2273 37.0949 76.8447 37.0949H75.2124V38.8243ZM80.6963 42.4282V36.2221H81.6497V42.4282H80.6963ZM81.181 35.1879C80.9952 35.1879 80.835 35.1246 80.7003 34.9981C80.5683 34.8713 80.5022 34.7191 80.5022 34.5413C80.5022 34.3635 80.5683 34.2113 80.7003 34.0848C80.835 33.9582 80.9952 33.8949 81.181 33.8949C81.3669 33.8949 81.5259 33.9582 81.6577 34.0848C81.7926 34.2113 81.8599 34.3635 81.8599 34.5413C81.8599 34.7191 81.7926 34.8713 81.6577 34.9981C81.5259 35.1246 81.3669 35.1879 81.181 35.1879ZM83.0084 40.8443H84.0264C84.048 41.1245 84.1746 41.3374 84.4064 41.4829C84.6406 41.6282 84.945 41.701 85.3195 41.701C85.702 41.701 86.0292 41.6228 86.3013 41.4666C86.5734 41.3078 86.7095 41.0518 86.7095 40.699C86.7095 40.4916 86.6583 40.311 86.5559 40.1577C86.4535 40.0014 86.3093 39.8801 86.1235 39.794C85.9377 39.7078 85.7182 39.6646 85.465 39.6646H84.3983V38.808H85.465C85.8447 38.808 86.1249 38.7219 86.3053 38.5496C86.4885 38.377 86.58 38.1616 86.58 37.903C86.58 37.6256 86.4817 37.4033 86.2852 37.2364C86.0884 37.0667 85.8097 36.9818 85.4487 36.9818C85.085 36.9818 84.7821 37.0638 84.5396 37.2284C84.2971 37.3898 84.1694 37.5986 84.1559 37.8546H83.1539C83.1646 37.5206 83.267 37.2255 83.4609 36.9697C83.6548 36.7111 83.9188 36.5092 84.2528 36.3636C84.5868 36.2155 84.9694 36.1413 85.4003 36.1413C85.8367 36.1413 86.215 36.2181 86.5357 36.3717C86.8588 36.5225 87.1079 36.7287 87.2831 36.9899C87.4609 37.2485 87.5498 37.5422 87.5498 37.8707C87.5498 38.2208 87.4514 38.5036 87.2549 38.7191C87.0581 38.9348 86.8116 39.0881 86.5153 39.1799V39.2443C86.7498 39.2607 86.9531 39.3361 87.1255 39.4707C87.3006 39.6027 87.4367 39.7765 87.5336 39.992C87.6306 40.2046 87.6789 40.4404 87.6789 40.699C87.6789 41.0762 87.578 41.4047 87.376 41.6849C87.174 41.9622 86.8965 42.1777 86.5438 42.3313C86.1908 42.482 85.7881 42.5577 85.3356 42.5577C84.8966 42.5577 84.5034 42.4861 84.1559 42.3434C83.8084 42.1981 83.5322 41.9973 83.3274 41.7413C83.1255 41.4829 83.019 41.1838 83.0084 40.8443ZM93.172 38.8888V39.7777H89.7457V38.8888H93.172ZM89.972 36.2221V42.4282H89.0184V36.2221H89.972ZM93.8993 36.2221V42.4282H92.9457V36.2221H93.8993ZM96.5941 41.0221L99.5841 36.2221H100.683V42.4282H99.7297V37.6282L96.7558 42.4282H95.6408V36.2221H96.5941V41.0221ZM102.43 42.4282V36.2221H103.383V38.9213H104.013L106.244 36.2221H107.472L104.967 39.2121L107.504 42.4282H106.276L104.24 39.8102H103.383V42.4282H102.43ZM109.494 41.0221L112.484 36.2221H113.583V42.4282H112.629V37.6282L109.656 42.4282H108.541V36.2221H109.494V41.0221ZM121.52 42.5413C120.897 42.5413 120.346 42.3811 119.867 42.0606C119.387 41.7373 119.012 41.2928 118.74 40.7273C118.47 40.1617 118.336 39.511 118.336 38.7757V37.9999C118.336 37.2269 118.476 36.5428 118.756 35.9474C119.039 35.3522 119.428 34.8862 119.924 34.5496C120.419 34.2102 120.989 34.0404 121.633 34.0404C122.193 34.0404 122.691 34.1509 123.128 34.3718C123.564 34.5899 123.911 34.9037 124.17 35.3131C124.431 35.7198 124.577 36.206 124.606 36.7718H123.556C123.529 36.3999 123.424 36.0809 123.241 35.8142C123.057 35.5447 122.824 35.3387 122.542 35.196C122.261 35.0505 121.959 34.9777 121.633 34.9777C121.186 34.9777 120.788 35.1071 120.441 35.3657C120.096 35.6215 119.825 35.977 119.628 36.4324C119.435 36.8875 119.338 37.4102 119.338 37.9999V38.7757C119.338 39.3306 119.431 39.8222 119.616 40.2506C119.802 40.6787 120.06 41.0141 120.388 41.2566C120.717 41.499 121.094 41.6202 121.52 41.6202C121.864 41.6202 122.185 41.5488 122.481 41.4061C122.78 41.2632 123.027 41.0586 123.221 40.792C123.414 40.5253 123.526 40.2089 123.556 39.8424H124.606C124.574 40.3999 124.422 40.8809 124.15 41.2848C123.88 41.6889 123.519 41.9999 123.067 42.2182C122.614 42.4337 122.099 42.5413 121.52 42.5413ZM119.176 38.808V37.8868H122.618V38.808H119.176ZM126.096 42.4282V36.2221H128.633C129.302 36.2221 129.832 36.3731 130.225 36.6746C130.619 36.9764 130.815 37.3751 130.815 37.8707C130.815 38.2478 130.704 38.5401 130.48 38.7475C130.256 38.9521 129.97 39.091 129.62 39.1635C129.848 39.196 130.071 39.2768 130.286 39.406C130.504 39.5354 130.685 39.7132 130.827 39.9393C130.97 40.1629 131.042 40.4376 131.042 40.7635C131.042 41.0814 130.961 41.3656 130.799 41.6161C130.638 41.8667 130.406 42.0646 130.104 42.2102C129.803 42.3555 129.442 42.4282 129.022 42.4282H126.096ZM127.001 41.5555H129.022C129.35 41.5555 129.607 41.4775 129.793 41.3213C129.979 41.1651 130.072 40.9522 130.072 40.6829C130.072 40.3622 129.979 40.1105 129.793 39.9273C129.607 39.7414 129.35 39.6485 129.022 39.6485H127.001V41.5555ZM127.001 38.8243H128.633C128.889 38.8243 129.109 38.7892 129.292 38.7191C129.475 38.6465 129.615 38.5441 129.712 38.4121C129.812 38.2775 129.862 38.1184 129.862 37.9354C129.862 37.674 129.753 37.4694 129.535 37.3213C129.316 37.1703 129.016 37.0949 128.633 37.0949H127.001V38.8243ZM132.485 44.7555V36.2221H133.406V37.208H133.52C133.589 37.1003 133.686 36.9629 133.81 36.796C133.937 36.6263 134.117 36.4755 134.352 36.3435C134.589 36.2089 134.909 36.1413 135.313 36.1413C135.836 36.1413 136.297 36.2721 136.695 36.5334C137.094 36.7946 137.405 37.1651 137.629 37.6443C137.852 38.1239 137.964 38.6894 137.964 39.3413C137.964 39.9986 137.852 40.5684 137.629 41.0506C137.405 41.5299 137.095 41.9018 136.699 42.1656C136.303 42.4268 135.847 42.5577 135.33 42.5577C134.931 42.5577 134.612 42.4915 134.372 42.3595C134.132 42.2249 133.948 42.0727 133.818 41.903C133.689 41.7306 133.589 41.5879 133.52 41.4746H133.439V44.7555H132.485ZM133.423 39.3252C133.423 39.794 133.491 40.2074 133.629 40.5656C133.766 40.9211 133.967 41.1999 134.231 41.4021C134.494 41.6014 134.818 41.701 135.2 41.701C135.599 41.701 135.932 41.596 136.198 41.3857C136.468 41.1731 136.67 40.8875 136.804 40.5293C136.942 40.1683 137.01 39.767 137.01 39.3252C137.01 38.8888 136.943 38.4955 136.808 38.1454C136.676 37.7925 136.476 37.5137 136.206 37.3092C135.94 37.1018 135.604 36.998 135.2 36.998C134.812 36.998 134.486 37.0963 134.223 37.2928C133.959 37.487 133.759 37.7588 133.625 38.1092C133.49 38.4564 133.423 38.862 133.423 39.3252ZM141.94 42.5577C141.379 42.5577 140.888 42.4242 140.465 42.1575C140.045 41.8909 139.716 41.5178 139.479 41.0385C139.245 40.559 139.128 39.9986 139.128 39.3577C139.128 38.711 139.245 38.1469 139.479 37.6647C139.716 37.1824 140.045 36.8081 140.465 36.5414C140.888 36.2747 141.379 36.1413 141.94 36.1413C142.5 36.1413 142.99 36.2747 143.41 36.5414C143.833 36.8081 144.162 37.1824 144.396 37.6647C144.633 38.1469 144.752 38.711 144.752 39.3577C144.752 39.9986 144.633 40.559 144.396 41.0385C144.162 41.5178 143.833 41.8909 143.41 42.1575C142.99 42.4242 142.5 42.5577 141.94 42.5577ZM141.94 41.701C142.365 41.701 142.715 41.592 142.99 41.3737C143.265 41.1556 143.468 40.8688 143.6 40.5132C143.732 40.1577 143.798 39.7725 143.798 39.3577C143.798 38.9428 143.732 38.5562 143.6 38.1981C143.468 37.8397 143.265 37.5502 142.99 37.3293C142.715 37.1084 142.365 36.998 141.94 36.998C141.514 36.998 141.164 37.1084 140.889 37.3293C140.614 37.5502 140.411 37.8397 140.279 38.1981C140.147 38.5562 140.081 38.9428 140.081 39.3577C140.081 39.7725 140.147 40.1577 140.279 40.5132C140.411 40.8688 140.614 41.1556 140.889 41.3737C141.164 41.592 141.514 41.701 141.94 41.701ZM146.207 42.4282V36.2221H151.088V42.4282H150.135V37.111H147.161V42.4282H146.207ZM153.783 41.0221L156.773 36.2221H157.872V42.4282H156.918V37.6282L153.945 42.4282H152.83V36.2221H153.783V41.0221Z" fill="#4640DE"/>
</g>
<mask id="mask4_31730_133" style="mask-type:luminance" maskUnits="userSpaceOnUse" x="0" y="30" width="50" height="20">
<path d="M49.7778 30.1036H0V49.0666H49.7778V30.1036Z" fill="white"/>
</mask>
<g mask="url(#mask4_31730_133)">
<mask id="mask5_31730_133" style="mask-type:luminance" maskUnits="userSpaceOnUse" x="-26" y="-60" width="716" height="457">
<path d="M-25.6001 -59.2593H689.619V396.8H-25.6001V-59.2593Z" fill="white"/>
</mask>
<g mask="url(#mask5_31730_133)">
<path d="M33.4452 15.9274C32.4791 17.1951 31.5703 18.4002 30.6404 19.5889C30.5539 19.6995 30.3353 19.7542 30.1777 19.7548C27.0177 19.7687 23.858 19.7693 20.6981 19.7779C20.3021 19.7788 19.9051 19.7946 19.5107 19.8291C18.8973 19.8822 18.5591 20.2131 18.5278 20.757C18.4953 21.3237 18.7607 21.666 19.3742 21.7987C19.6295 21.854 19.8973 21.8739 20.1593 21.8745C22.8637 21.8812 25.568 21.8768 28.2721 21.8831C29.6517 21.8866 30.9966 22.0509 32.2174 22.7712C33.1726 23.3347 33.7301 24.177 33.8216 25.26C33.8802 25.9526 33.8394 26.6725 33.7154 27.3571C33.476 28.6778 32.6611 29.5873 31.4489 30.1446C30.4462 30.6054 29.3843 30.8358 28.2873 30.8384C23.4816 30.8498 18.6754 30.8413 13.8695 30.8389C13.8266 30.8389 13.7839 30.8254 13.6875 30.809C13.7523 30.6981 13.7965 30.5995 13.8607 30.5156C14.6736 29.456 15.4944 28.4026 16.299 27.3364C16.4586 27.1248 16.6309 27.0548 16.8903 27.0556C20.4766 27.0603 24.0628 27.0577 27.6487 27.0482C27.9839 27.0473 28.3266 27.0214 28.6521 26.9477C29.2117 26.8211 29.4744 26.4345 29.4592 25.8502C29.4459 25.3501 29.1809 25.0353 28.6244 24.9289C28.3105 24.8689 27.9844 24.8509 27.6632 24.8499C24.9297 24.8426 22.1959 24.8542 19.4621 24.8359C18.445 24.8291 17.4453 24.675 16.4975 24.2697C15.1954 23.7124 14.3787 22.756 14.1682 21.3502C13.9277 19.7456 14.2725 18.3057 15.5724 17.2226C16.4093 16.5251 17.4279 16.2179 18.4855 16.0728C19.2392 15.9698 20.0053 15.9094 20.7661 15.9075C24.8958 15.8965 29.0257 15.9094 33.1558 15.9148C33.226 15.9148 33.2961 15.9208 33.4452 15.9274Z" fill="#4640DE"/>
<path d="M45.2401 22.8831C45.2062 26.7954 44.5053 29.9883 43.0515 33.0101C42.8081 33.5164 42.6109 33.6513 42.0816 33.4427C41.5165 33.2198 40.9462 32.9361 40.4801 32.555C39.7446 31.9531 39.0892 31.2527 38.4153 30.5785C38.344 30.5072 38.325 30.3078 38.3696 30.2066C39.403 27.8597 39.9039 25.4092 39.7984 22.8455C39.6726 19.7849 38.7597 16.9758 37.0275 14.4427C35.7342 12.5515 34.1147 10.9921 32.1592 9.79644C30.4544 8.75412 28.6219 8.02056 26.6478 7.66974C26.3888 7.62362 26.2456 7.51299 26.2138 7.26363C26.0607 6.04557 25.9047 4.82784 25.7672 3.60821C25.745 3.41036 25.7945 3.19956 25.836 3.00012C26.0209 2.11139 26.1169 2.04976 27.0112 2.19704C32.2798 3.06523 36.6356 5.54274 40.099 9.59671C42.6659 12.6017 44.2948 16.0511 44.9414 19.9448C45.1329 21.0981 45.1806 22.275 45.2401 22.8831Z" fill="#4640DE"/>
<path d="M23.49 44.936C17.4791 44.8497 12.3752 42.6263 8.16953 38.362C7.26689 37.4475 6.52293 36.378 5.68792 35.3948C5.39558 35.0499 5.42907 34.7161 5.72774 34.4689C6.17432 34.0998 6.64209 33.7016 7.17082 33.4985C8.13952 33.1263 9.15688 32.8798 10.1613 32.6074C10.2608 32.5802 10.4517 32.7049 10.5298 32.8111C12.0645 34.8877 13.9548 36.5536 16.2541 37.7391C18.0578 38.6692 19.9718 39.2246 21.9986 39.4284C24.7795 39.7081 27.4419 39.2822 30.0017 38.1901C32.2396 37.2354 34.1589 35.8304 35.7532 33.9958C36.0144 33.6947 36.2446 33.5916 36.6162 33.7516C37.6251 34.1859 38.6434 34.5993 39.6541 35.0297C39.8003 35.0918 39.931 35.1959 40.0599 35.2926C40.996 35.9923 41.0261 36.2087 40.2915 37.0855C37.2029 40.7736 33.3145 43.1878 28.6411 44.3247C26.9539 44.7352 25.2358 44.9507 23.49 44.936Z" fill="#4640DE"/>
<path d="M2.18115 23.0567C2.53577 15.7339 5.60175 9.59649 12.034 5.33457C15.1449 3.2736 18.6126 2.14405 22.3489 1.85676C22.8539 1.81788 23.1185 2.06756 23.1488 2.46073C23.2076 3.22588 23.2319 4.00906 23.1321 4.76632C23.0334 5.51502 22.7519 6.23846 22.5752 6.97896C22.5136 7.23719 22.395 7.32473 22.1352 7.35223C19.9646 7.58327 17.9034 8.18629 15.9988 9.26149C11.3779 11.8702 8.67564 15.8198 7.83497 21.0406C7.41145 23.6695 7.71043 26.2399 8.55144 28.7584C8.60043 28.9052 8.58336 29.1612 8.4876 29.2553C7.56474 30.1643 6.57929 31.0027 5.40866 31.5797C5.06225 31.7503 4.66308 31.839 4.27782 31.8925C4.14098 31.9115 3.88908 31.7489 3.83314 31.6112C2.98296 29.5222 2.43114 27.3595 2.2924 25.1012C2.25669 24.516 2.22856 23.93 2.18115 23.0567Z" fill="#4640DE"/>
</g>
<path d="M47.5332 34.5125V17.2089H49.4013V19.208H49.6307C49.7727 18.9896 49.9692 18.711 50.2205 18.3723C50.4772 18.0282 50.8432 17.7224 51.3184 17.4547C51.7992 17.1816 52.4491 17.0451 53.2683 17.0451C54.3281 17.0451 55.262 17.31 56.0703 17.8398C56.8789 18.3696 57.5096 19.1206 57.9631 20.0929C58.4163 21.0651 58.6431 22.2122 58.6431 23.534C58.6431 24.8668 58.4163 26.0219 57.9631 26.9996C57.5096 27.972 56.8815 28.7257 56.0786 29.261C55.2758 29.7907 54.3499 30.0555 53.3013 30.0555C52.4927 30.0555 51.8456 29.9218 51.3595 29.6542C50.8733 29.3811 50.4992 29.0725 50.2371 28.7283C49.9749 28.3787 49.7727 28.0893 49.6307 27.8598H49.4669V34.5125H47.5332ZM49.434 23.5012C49.434 24.4515 49.5734 25.2901 49.8519 26.0164C50.1304 26.7375 50.5374 27.3028 51.0726 27.7124C51.6079 28.1166 52.2635 28.3187 53.0391 28.3187C53.8474 28.3187 54.522 28.1057 55.0627 27.6797C55.6088 27.2481 56.0187 26.6692 56.2917 25.9427C56.5702 25.2107 56.7094 24.397 56.7094 23.5012C56.7094 22.6163 56.5728 21.8189 56.2998 21.1088C56.0322 20.3933 55.6252 19.828 55.079 19.4129C54.5384 18.9923 53.8583 18.782 53.0391 18.782C52.2524 18.782 51.5915 18.9814 51.0563 19.3801C50.5211 19.7734 50.1169 20.325 49.8436 21.0351C49.5705 21.7397 49.434 22.5617 49.434 23.5012ZM61.5926 29.7934V17.2089H63.4607V19.1097H63.5918C63.821 18.487 64.2363 17.9818 64.8369 17.594C65.4378 17.2062 66.115 17.0123 66.8688 17.0123C67.0108 17.0123 67.1883 17.015 67.4014 17.0205C67.6145 17.026 67.7755 17.0342 67.8847 17.0451V19.0114C67.8193 18.995 67.669 18.9704 67.4341 18.9377C67.2047 18.8994 66.9617 18.8803 66.705 18.8803C66.0932 18.8803 65.5471 19.0087 65.0664 19.2654C64.5911 19.5166 64.2142 19.8662 63.9357 20.3141C63.6626 20.7565 63.5261 21.2618 63.5261 21.8298V29.7934H61.5926ZM70.1769 29.7934V17.2089H72.1104V29.7934H70.1769ZM71.1599 15.1115C70.783 15.1115 70.458 14.9832 70.1849 14.7265C69.9173 14.4697 69.7836 14.1611 69.7836 13.8006C69.7836 13.4401 69.9173 13.1315 70.1849 12.8748C70.458 12.6181 70.783 12.4897 71.1599 12.4897C71.5368 12.4897 71.8591 12.6181 72.1267 12.8748C72.3998 13.1315 72.5363 13.4401 72.5363 13.8006C72.5363 14.1611 72.3998 14.4697 72.1267 14.7265C71.8591 14.9832 71.5368 15.1115 71.1599 15.1115ZM77.5855 22.2231V29.7934H75.6517V17.2089H77.5198V19.1753H77.6836C77.9787 18.5362 78.4265 18.0228 79.0274 17.635C79.6283 17.2417 80.4038 17.0451 81.3541 17.0451C82.2063 17.0451 82.9517 17.2199 83.5908 17.5694C84.2299 17.9135 84.7269 18.4379 85.082 19.1425C85.4371 19.8416 85.6146 20.7265 85.6146 21.7971V29.7934H83.6809V21.9281C83.6809 20.9395 83.4242 20.1694 82.9107 19.6177C82.3973 19.0606 81.6928 18.782 80.7971 18.782C80.1798 18.782 79.6283 18.9158 79.1421 19.1835C78.6614 19.4511 78.2819 19.8416 78.0031 20.3551C77.7246 20.8685 77.5855 21.4912 77.5855 22.2231ZM94.6208 17.2089V18.8476H88.099V17.2089H94.6208ZM89.9998 14.1939H91.9333V26.1885C91.9333 26.7346 92.0127 27.1445 92.1711 27.4175C92.3349 27.6851 92.5425 27.8653 92.7938 27.9582C93.0505 28.0457 93.3207 28.0893 93.6049 28.0893C93.8178 28.0893 93.9927 28.0784 94.1292 28.0566C94.2658 28.0293 94.375 28.0073 94.4568 27.9909L94.8501 29.7279C94.719 29.777 94.536 29.8263 94.3013 29.8754C94.0664 29.9299 93.7687 29.9574 93.4082 29.9574C92.862 29.9574 92.3268 29.8398 91.8022 29.6049C91.2834 29.3702 90.852 29.0123 90.5078 28.5316C90.1693 28.0511 89.9998 27.4448 89.9998 26.7128V14.1939ZM102.67 30.0555C101.458 30.0555 100.412 29.7879 99.5325 29.2527C98.6585 28.712 97.9839 27.9582 97.5087 26.9913C97.0391 26.0193 96.8042 24.8886 96.8042 23.5995C96.8042 22.3105 97.0391 21.1744 97.5087 20.1912C97.9839 19.2026 98.6448 18.4324 99.4915 17.8808C100.344 17.3236 101.338 17.0451 102.474 17.0451C103.129 17.0451 103.776 17.1543 104.415 17.3728C105.055 17.5913 105.636 17.9463 106.161 18.4379C106.685 18.924 107.103 19.5685 107.414 20.3715C107.725 21.1744 107.881 22.163 107.881 23.3373V24.1566H98.1807V22.4853H105.915C105.915 21.7752 105.773 21.1416 105.489 20.5845C105.21 20.0273 104.812 19.5877 104.293 19.2654C103.779 18.9431 103.173 18.782 102.474 18.782C101.704 18.782 101.037 18.9732 100.475 19.3555C99.9174 19.7324 99.4889 20.224 99.1883 20.8303C98.888 21.4365 98.7377 22.0865 98.7377 22.7802V23.8945C98.7377 24.845 98.9015 25.6504 99.2293 26.3115C99.5626 26.9669 100.024 27.4666 100.614 27.8108C101.204 28.1493 101.889 28.3187 102.67 28.3187C103.178 28.3187 103.637 28.2476 104.047 28.1057C104.462 27.9582 104.82 27.7397 105.12 27.4502C105.42 27.1554 105.653 26.7894 105.817 26.3523L107.684 26.8766C107.488 27.5102 107.157 28.0675 106.693 28.5482C106.229 29.0232 105.655 29.3947 104.973 29.6623C104.29 29.9244 103.523 30.0555 102.67 30.0555ZM110.823 29.7934V17.2089H112.69V19.1097H112.821C113.051 18.487 113.466 17.9818 114.067 17.594C114.668 17.2062 115.345 17.0123 116.099 17.0123C116.241 17.0123 116.418 17.015 116.631 17.0205C116.844 17.026 117.005 17.0342 117.115 17.0451V19.0114C117.049 18.995 116.899 18.9704 116.664 18.9377C116.435 18.8994 116.192 18.8803 115.935 18.8803C115.323 18.8803 114.777 19.0087 114.296 19.2654C113.821 19.5166 113.444 19.8662 113.166 20.3141C112.893 20.7565 112.756 21.2618 112.756 21.8298V29.7934H110.823ZM128.321 20.0273L126.584 20.5189C126.475 20.2294 126.313 19.9481 126.101 19.6751C125.893 19.3965 125.609 19.1671 125.248 18.9868C124.888 18.8066 124.426 18.7164 123.864 18.7164C123.093 18.7164 122.452 18.894 121.938 19.249C121.43 19.5986 121.176 20.0437 121.176 20.5845C121.176 21.0651 121.351 21.4447 121.701 21.7233C122.05 22.0019 122.597 22.234 123.339 22.4197L125.207 22.8785C126.333 23.1516 127.171 23.5695 127.723 24.132C128.274 24.6892 128.55 25.4075 128.55 26.2869C128.55 27.0079 128.343 27.6524 127.927 28.2204C127.518 28.7886 126.944 29.2363 126.207 29.5641C125.47 29.8917 124.612 30.0555 123.634 30.0555C122.351 30.0555 121.288 29.777 120.447 29.22C119.606 28.6629 119.074 27.8489 118.85 26.7785L120.685 26.3196C120.86 26.9968 121.19 27.5048 121.676 27.8435C122.168 28.1822 122.81 28.3515 123.601 28.3515C124.503 28.3515 125.218 28.1604 125.748 27.7781C126.284 27.3903 126.551 26.9259 126.551 26.3852C126.551 25.9481 126.398 25.5822 126.092 25.2873C125.786 24.987 125.317 24.763 124.683 24.6155L122.586 24.1239C121.433 23.8508 120.587 23.4275 120.046 22.854C119.51 22.275 119.243 21.5512 119.243 20.6828C119.243 19.9727 119.442 19.3446 119.841 18.7984C120.245 18.2522 120.794 17.8234 121.488 17.5121C122.187 17.2007 122.979 17.0451 123.864 17.0451C125.109 17.0451 126.087 17.3182 126.797 17.8644C127.512 18.4106 128.02 19.1316 128.321 20.0273Z" fill="#4640DE"/>
</g>
</g>
</g>
<defs>
<clipPath id="clip0_31730_133">
<rect width="160" height="47.4074" fill="white"/>
</clipPath>
</defs>
</svg>
