<svg width="43" height="32" viewBox="0 0 43 32" fill="none" xmlns="http://www.w3.org/2000/svg">
<mask id="mask0_31730_328" style="mask-type:luminance" maskUnits="userSpaceOnUse" x="0" y="0" width="43" height="32">
<rect width="42.6667" height="32" fill="white"/>
</mask>
<g mask="url(#mask0_31730_328)">
<path fill-rule="evenodd" clip-rule="evenodd" d="M0 0V32H42.6667V0H0Z" fill="#FFB400"/>
<mask id="mask1_31730_328" style="mask-type:luminance" maskUnits="userSpaceOnUse" x="0" y="0" width="43" height="32">
<path fill-rule="evenodd" clip-rule="evenodd" d="M0 0V32H42.6667V0H0Z" fill="white"/>
</mask>
<g mask="url(#mask1_31730_328)">
<path fill-rule="evenodd" clip-rule="evenodd" d="M0 0V8H42.6667V0H0Z" fill="#C51918"/>
<path fill-rule="evenodd" clip-rule="evenodd" d="M0 24V32H42.6667V24H0Z" fill="#C51918"/>
<rect x="6.67773" y="13.696" width="1.49333" height="7.76533" fill="#F1F9FF"/>
<path fill-rule="evenodd" clip-rule="evenodd" d="M8.76808 12.3518H6.08008V13.0985H6.52799V13.6958H8.31999V13.0985H8.76808V12.3518Z" fill="#C88A02"/>
<path fill-rule="evenodd" clip-rule="evenodd" d="M8.32008 21.9091H8.76808V22.6558H6.08008V21.9091H6.52808V21.3118H8.32008V21.9091Z" fill="#C88A02"/>
<path fill-rule="evenodd" clip-rule="evenodd" d="M7.42424 12.5011C7.74922 12.5011 7.78225 12.3787 7.97397 12.1959C8.12285 12.054 8.46957 11.878 8.46957 11.6797C8.46957 11.2261 8.00156 10.8584 7.42424 10.8584C6.84692 10.8584 6.37891 11.2261 6.37891 11.6797C6.37891 11.9006 6.61768 12.0483 6.79822 12.1959C6.98843 12.3515 7.12805 12.5011 7.42424 12.5011Z" fill="#AD1619"/>
<path fill-rule="evenodd" clip-rule="evenodd" d="M6.08008 22.6558H8.76808V23.8504C8.76808 23.8504 8.43208 23.7011 8.09608 23.7011C7.76008 23.7011 7.42408 23.8504 7.42408 23.8504C7.42408 23.8504 7.08808 23.7011 6.75208 23.7011C6.41608 23.7011 6.08008 23.8504 6.08008 23.8504V22.6558Z" fill="#005BBF"/>
<mask id="mask2_31730_328" style="mask-type:luminance" maskUnits="userSpaceOnUse" x="6" y="22" width="3" height="2">
<path fill-rule="evenodd" clip-rule="evenodd" d="M6.08008 22.6558H8.76808V23.8504C8.76808 23.8504 8.43208 23.7011 8.09608 23.7011C7.76008 23.7011 7.42408 23.8504 7.42408 23.8504C7.42408 23.8504 7.08808 23.7011 6.75208 23.7011C6.41608 23.7011 6.08008 23.8504 6.08008 23.8504V22.6558Z" fill="white"/>
</mask>
<g mask="url(#mask2_31730_328)">
<path d="M6.05623 23.6159L5.99756 23.4728C6.23966 23.3651 6.48263 23.311 6.72596 23.311C6.88318 23.311 6.96527 23.333 7.10483 23.3951C7.22742 23.4496 7.29097 23.4666 7.42503 23.4666C7.5591 23.4666 7.62265 23.4496 7.74523 23.3951C7.8848 23.333 7.96689 23.311 8.1241 23.311C8.36744 23.311 8.61041 23.3651 8.85251 23.4728L8.79384 23.6159C8.5699 23.5162 8.34682 23.4666 8.1241 23.4666C7.99004 23.4666 7.92649 23.4836 7.8039 23.5381C7.66434 23.6002 7.58225 23.6221 7.42503 23.6221C7.26782 23.6221 7.18573 23.6002 7.04616 23.5381C6.92358 23.4836 6.86003 23.4666 6.72596 23.4666C6.50325 23.4666 6.28017 23.5162 6.05623 23.6159Z" fill="white"/>
<path d="M6.05623 23.1676L5.99756 23.0246C6.23966 22.9169 6.48263 22.8628 6.72596 22.8628C6.88318 22.8628 6.96527 22.8847 7.10483 22.9468C7.22742 23.0014 7.29097 23.0183 7.42503 23.0183C7.5591 23.0183 7.62265 23.0014 7.74523 22.9468C7.8848 22.8847 7.96689 22.8628 8.1241 22.8628C8.36744 22.8628 8.61041 22.9169 8.85251 23.0246L8.79384 23.1676C8.5699 23.068 8.34682 23.0183 8.1241 23.0183C7.99004 23.0183 7.92649 23.0353 7.8039 23.0899C7.66434 23.152 7.58225 23.1739 7.42503 23.1739C7.26782 23.1739 7.18573 23.152 7.04616 23.0899C6.92358 23.0353 6.86003 23.0183 6.72596 23.0183C6.50325 23.0183 6.28017 23.068 6.05623 23.1676Z" fill="white"/>
</g>
<rect x="21.3125" y="13.696" width="1.49333" height="7.76533" fill="#F1F9FF"/>
<path fill-rule="evenodd" clip-rule="evenodd" d="M23.4028 12.3518H20.7148V13.0985H21.1628V13.6958H22.9548V13.0985H23.4028V12.3518Z" fill="#C88A02"/>
<path fill-rule="evenodd" clip-rule="evenodd" d="M22.9548 21.9091H23.4028V22.6558H20.7148V21.9091H21.1628V21.3118H22.9548V21.9091Z" fill="#C88A02"/>
<path fill-rule="evenodd" clip-rule="evenodd" d="M22.059 12.5013C22.384 12.5013 22.417 12.3789 22.6087 12.1962C22.7576 12.0543 23.1043 11.8782 23.1043 11.68C23.1043 11.2264 22.6363 10.8586 22.059 10.8586C21.4817 10.8586 21.0137 11.2264 21.0137 11.68C21.0137 11.9009 21.2524 12.0486 21.433 12.1962C21.6232 12.3517 21.7628 12.5013 22.059 12.5013Z" fill="#AD1619"/>
<path fill-rule="evenodd" clip-rule="evenodd" d="M20.7148 22.6558H23.4028V23.8504C23.4028 23.8504 23.0668 23.7011 22.7308 23.7011C22.3948 23.7011 22.0588 23.8504 22.0588 23.8504C22.0588 23.8504 21.7228 23.7011 21.3868 23.7011C21.0508 23.7011 20.7148 23.8504 20.7148 23.8504V22.6558Z" fill="#005BBF"/>
<mask id="mask3_31730_328" style="mask-type:luminance" maskUnits="userSpaceOnUse" x="20" y="22" width="4" height="2">
<path fill-rule="evenodd" clip-rule="evenodd" d="M20.7148 22.6558H23.4028V23.8504C23.4028 23.8504 23.0668 23.7011 22.7308 23.7011C22.3948 23.7011 22.0588 23.8504 22.0588 23.8504C22.0588 23.8504 21.7228 23.7011 21.3868 23.7011C21.0508 23.7011 20.7148 23.8504 20.7148 23.8504V22.6558Z" fill="white"/>
</mask>
<g mask="url(#mask3_31730_328)">
<path d="M20.691 23.6159L20.6323 23.4728C20.8744 23.3651 21.1174 23.311 21.3607 23.311C21.5179 23.311 21.6 23.333 21.7396 23.3951C21.8622 23.4496 21.9257 23.4666 22.0598 23.4666C22.1939 23.4666 22.2574 23.4496 22.38 23.3951C22.5196 23.333 22.6017 23.311 22.7589 23.311C23.0022 23.311 23.2452 23.3651 23.4873 23.4728L23.4286 23.6159C23.2047 23.5162 22.9816 23.4666 22.7589 23.4666C22.6248 23.4666 22.5613 23.4836 22.4387 23.5381C22.2991 23.6002 22.217 23.6221 22.0598 23.6221C21.9026 23.6221 21.8205 23.6002 21.6809 23.5381C21.5583 23.4836 21.4948 23.4666 21.3607 23.4666C21.138 23.4666 20.9149 23.5162 20.691 23.6159Z" fill="white"/>
<path d="M20.691 23.1676L20.6323 23.0246C20.8744 22.9169 21.1174 22.8628 21.3607 22.8628C21.5179 22.8628 21.6 22.8847 21.7396 22.9468C21.8622 23.0014 21.9257 23.0183 22.0598 23.0183C22.1939 23.0183 22.2574 23.0014 22.38 22.9468C22.5196 22.8847 22.6017 22.8628 22.7589 22.8628C23.0022 22.8628 23.2452 22.9169 23.4873 23.0246L23.4286 23.1676C23.2047 23.068 22.9816 23.0183 22.7589 23.0183C22.6248 23.0183 22.5613 23.0353 22.4387 23.0899C22.2991 23.152 22.217 23.1739 22.0598 23.1739C21.9026 23.1739 21.8205 23.152 21.6809 23.0899C21.5583 23.0353 21.4948 23.0183 21.3607 23.0183C21.138 23.0183 20.9149 23.068 20.691 23.1676Z" fill="white"/>
</g>
<path fill-rule="evenodd" clip-rule="evenodd" d="M22.2749 19.9678C22.2749 20.2832 22.4255 20.5802 22.6947 20.9066L23.6117 20.1503L23.6992 20.1234L23.748 19.7412C23.8382 19.0353 23.5365 18.6442 22.9148 18.3615L22.8719 18.3426L22.8718 18.3426C22.7865 18.3051 22.6008 18.2236 22.538 18.1935C22.4068 18.1306 22.2985 18.0682 22.1975 17.9947C22.0979 17.9223 21.991 17.854 21.8621 17.7792C22.6315 17.6555 23.0473 17.5644 23.3662 17.427C24.1295 17.0981 24.2279 16.3344 23.4943 15.8292C22.4941 15.1404 19.8166 15.0785 18.6415 15.6852L19.1896 16.7467C19.7662 16.449 21.0772 16.3928 21.9953 16.5456C21.8557 16.57 21.6991 16.5957 21.5236 16.6233C21.4411 16.6362 21.2009 16.6734 21.0755 16.6927L21.075 16.6928L20.9992 16.7046C20.6325 16.7616 20.3823 16.834 20.1969 16.9602C19.8185 17.2178 19.7625 17.682 20.0325 18.0244C20.1465 18.169 20.2955 18.2771 20.5211 18.408C20.5935 18.4499 20.6714 18.4927 20.776 18.5485L20.8307 18.5776C20.895 18.6117 20.9958 18.6652 21.033 18.6852C21.2482 18.8008 21.3895 18.8842 21.4949 18.9609C21.66 19.081 21.8293 19.1786 22.0215 19.2707C22.1249 19.3203 22.4219 19.4498 22.4203 19.449L22.4378 19.4569C22.3341 19.5972 22.2749 19.769 22.2749 19.9678ZM6.65116 20.9066C6.92039 20.5802 7.07095 20.2833 7.07095 19.9679C7.07095 19.769 7.01177 19.5973 6.90809 19.4569L6.92561 19.4491C6.924 19.4498 7.22097 19.3203 7.32436 19.2708C7.51657 19.1786 7.68589 19.081 7.85099 18.9609C7.95639 18.8843 8.09762 18.8008 8.3129 18.6852C8.3501 18.6652 8.45091 18.6117 8.51523 18.5776L8.56983 18.5486C8.67446 18.4928 8.75237 18.45 8.82476 18.408C9.05032 18.2772 9.19938 18.169 9.31338 18.0245C9.58341 17.682 9.52734 17.2179 9.14895 16.9603C8.96356 16.834 8.7134 16.7616 8.34669 16.7046L8.27067 16.6928C8.14535 16.6735 7.90484 16.6363 7.82222 16.6233C7.64673 16.5958 7.49016 16.57 7.35055 16.5456C8.26863 16.3929 9.57962 16.449 10.1563 16.7468L10.7044 15.6852C9.52923 15.0785 6.85172 15.1405 5.85155 15.8293C5.11795 16.3345 5.21639 17.0981 5.97966 17.427C6.2986 17.5644 6.71437 17.6556 7.48377 17.7792C7.35483 17.854 7.24794 17.9223 7.14834 17.9948C7.04733 18.0682 6.93911 18.1306 6.80784 18.1935C6.74506 18.2236 6.55914 18.3053 6.47394 18.3427L6.4311 18.3616C5.80939 18.6442 5.50766 19.0353 5.59783 19.7413L5.64663 20.1234L5.73418 20.1503L6.65116 20.9066ZM5.88275 19.919L5.88086 19.9245L5.88231 19.9206L5.88275 19.919Z" fill="#AD1619"/>
<path d="M7.89821 16.5332L8.33899 16.6244V17.2814C7.86953 17.656 6.67773 18.2873 6.67773 18.2873V16.5332H7.89821Z" fill="#F1F9FF"/>
<path d="M21.7536 16.5332L21.3129 16.6244V17.2814C21.7823 17.656 22.9741 18.2873 22.9741 18.2873V16.5332H21.7536Z" fill="#F1F9FF"/>
<path fill-rule="evenodd" clip-rule="evenodd" d="M19.7008 9.60795V9.38931C18.9327 8.83805 18.1283 8.56242 17.2877 8.56242C16.4819 8.20585 15.6664 8.0674 14.841 8.14707C14.8412 8.14454 14.8413 8.14325 14.8413 8.14325C13.6 8.02179 12.349 8.5624 12.349 8.5624C11.0881 8.5624 9.93592 9.38929 9.93592 9.38929V9.60794L11.4421 11.1206C11.4421 11.1206 11.866 12.5765 14.8347 12.2345V12.2382C14.8347 12.2382 16.8005 12.1845 16.9387 12.1386C16.9935 12.1203 17.0503 12.1037 17.1084 12.0868C17.4934 11.9744 17.933 11.846 18.1946 11.1207L19.7008 9.60795ZM14.8347 8.21913C14.7907 8.73763 14.5488 11.752 14.8347 12.2235V8.21913Z" fill="#AD1619"/>
<path fill-rule="evenodd" clip-rule="evenodd" d="M11.085 10.8662L11.086 10.8615L10.0264 9.86462L10.1287 9.75586L11.123 10.6913L11.1484 10.5743C11.3111 10.6097 11.43 10.6227 11.4993 10.6153V10.4124L11.7197 10.5317C11.8281 10.5904 11.9834 10.6061 12.1878 10.5729C12.338 10.5484 12.4394 10.374 12.4725 10.0023L12.5394 9.25195L12.7638 9.97108C12.8654 10.2965 13.0203 10.4399 13.2408 10.4399C13.4562 10.4399 13.5428 10.361 13.5523 10.1619L13.5794 9.59743L13.8347 10.1016C13.9267 10.2833 14.0535 10.3657 14.2339 10.3657C14.4918 10.3657 14.6641 10.1507 14.6641 9.81328H14.6684H14.9628H14.9671C14.9671 10.1507 15.1394 10.3657 15.3973 10.3657C15.5777 10.3657 15.7045 10.2833 15.7965 10.1016L16.0518 9.59743L16.0789 10.1619C16.0884 10.361 16.175 10.4399 16.3904 10.4399C16.6109 10.4399 16.7658 10.2965 16.8674 9.97108L17.0918 9.25195L17.1587 10.0023C17.1918 10.374 17.2932 10.5484 17.4433 10.5729C17.6478 10.6061 17.8031 10.5904 17.9115 10.5317L18.1319 10.4124V10.6153C18.2012 10.6227 18.3201 10.6097 18.4828 10.5743L18.53 10.7917L19.6311 9.75586L19.7334 9.86462L18.3637 11.1533C18.1638 11.5213 18.0632 11.7643 18.0632 11.8652C18.0632 12.0191 17.6627 12.1105 16.881 12.2043C16.2687 12.2779 15.546 12.3272 14.9549 12.3346V12.3356L14.8799 12.3353L14.8049 12.3356V12.3346C14.2137 12.3272 13.4911 12.2779 12.8788 12.2043C12.0971 12.1105 11.6966 12.0191 11.6966 11.8652C11.6966 11.8463 11.6931 11.8225 11.686 11.7938C11.6064 11.693 11.5506 11.5271 11.5136 11.3779C11.4793 11.3092 11.4401 11.2343 11.3961 11.1533L11.0927 10.8678L11.085 10.8662ZM18.4254 10.8901C18.1807 10.9335 18.0039 10.9292 17.9102 10.8528C17.7636 10.8955 17.5917 10.8996 17.3954 10.8676C17.1857 10.8335 17.0397 10.6941 16.9519 10.4627C16.8372 10.6089 16.6922 10.6991 16.5185 10.7282C17.4743 10.8638 18.1439 11.0543 18.1439 11.0543C18.1439 11.0543 18.1274 11.1957 18.0873 11.3621C18.1297 11.275 18.18 11.1782 18.2382 11.0714L18.2526 11.0527L18.4254 10.8901ZM16.0675 10.6715C15.9844 10.6302 15.9181 10.5703 15.8701 10.4931C15.7988 10.556 15.7178 10.6021 15.6277 10.6305C15.778 10.6419 15.925 10.6558 16.0675 10.6715ZM15.1007 10.6014C14.9845 10.5477 14.8878 10.4618 14.8156 10.3517C14.7439 10.461 14.6481 10.5465 14.533 10.6003C14.6012 10.5982 14.6698 10.5968 14.7388 10.596V10.5954L14.7985 10.5955L14.8582 10.5954V10.596C14.9395 10.597 15.0204 10.5988 15.1007 10.6014ZM11.4962 11.0425L11.3571 10.9116C11.5242 10.9281 11.6479 10.9124 11.721 10.8528C11.8676 10.8955 12.0395 10.8996 12.2358 10.8676C12.4455 10.8335 12.5915 10.6941 12.6793 10.4627C12.7907 10.6046 12.9306 10.6938 13.0976 10.7255C12.2743 10.8412 11.6597 10.9985 11.4962 11.0425ZM13.997 10.6284C13.8523 10.6391 13.7106 10.6521 13.5729 10.6668C13.6517 10.6257 13.7149 10.5674 13.7611 10.4931C13.8307 10.5545 13.9095 10.5998 13.997 10.6284ZM17.6705 11.8682C17.7752 11.9171 17.859 11.8683 17.9253 11.7746C17.9196 11.8004 17.916 11.8238 17.9146 11.8447C17.9058 11.8505 17.8924 11.8574 17.8748 11.8648C17.8256 11.8855 17.7505 11.9075 17.6527 11.9298C17.4606 11.9736 17.1872 12.0172 16.8632 12.0561C16.2304 12.1321 15.478 12.182 14.8799 12.186C14.2817 12.182 13.5293 12.1321 12.8966 12.0561C12.5725 12.0172 12.2991 11.9736 12.107 11.9298C12.025 11.9111 11.9589 11.8926 11.9107 11.8749C11.9159 11.8729 11.9212 11.8707 11.9265 11.8682C12.2527 11.7155 14.4105 11.5722 14.7985 11.5476C15.1865 11.5722 17.3443 11.7155 17.6705 11.8682ZM18.082 11.8408L18.0812 11.8416L18.0801 11.843L18.0811 11.8415L18.082 11.8408Z" fill="#C88A02"/>
<path fill-rule="evenodd" clip-rule="evenodd" d="M14.8162 7.1294C15.0636 7.1294 15.2642 6.92882 15.2642 6.6814C15.2642 6.43397 15.0636 6.2334 14.8162 6.2334C14.5687 6.2334 14.3682 6.43397 14.3682 6.6814C14.3682 6.92882 14.5687 7.1294 14.8162 7.1294Z" fill="#005BBF"/>
<path fill-rule="evenodd" clip-rule="evenodd" d="M14.5247 9.32921C14.5342 9.3783 14.5491 9.424 14.5679 9.46475C14.5102 9.44274 14.4416 9.42999 14.3681 9.42999C14.1619 9.42999 13.9948 9.53028 13.9948 9.65399C13.9948 9.7777 14.1619 9.87799 14.3681 9.87799C14.5694 9.87799 14.7334 9.78245 14.7412 9.66284C14.7489 9.78245 14.913 9.87799 15.1142 9.87799C15.3204 9.87799 15.4876 9.7777 15.4876 9.65399C15.4876 9.53028 15.3204 9.42999 15.1142 9.42999C15.0624 9.42999 15.0131 9.43632 14.9683 9.44776C14.9791 9.38655 14.9786 9.31638 14.9645 9.24373C14.9251 9.04133 14.7948 8.89639 14.6733 8.92C14.5519 8.9436 14.4854 9.12682 14.5247 9.32921ZM12.3278 9.61419C12.3089 9.57341 12.294 9.52765 12.2845 9.47851C12.2451 9.27611 12.3117 9.0929 12.4331 9.06929C12.5545 9.04569 12.6849 9.19063 12.7242 9.39302C12.7384 9.46577 12.7388 9.53605 12.728 9.59732C12.7729 9.58583 12.8223 9.57947 12.8743 9.57947C13.0804 9.57947 13.2476 9.67976 13.2476 9.80347C13.2476 9.92718 13.0804 10.0275 12.8743 10.0275C12.6716 10.0275 12.5067 9.93059 12.5011 9.80981C12.4954 9.93056 12.3305 10.0274 12.1279 10.0274C11.9217 10.0274 11.7546 9.92712 11.7546 9.80341C11.7546 9.67969 11.9217 9.57941 12.1279 9.57941C12.2014 9.57941 12.27 9.59216 12.3278 9.61419ZM12.5011 9.79661L12.5011 9.79706L12.5011 9.79662L12.5011 9.79661ZM17.0047 9.75091C16.9875 9.87341 16.808 9.94946 16.6039 9.92077C16.3997 9.89207 16.2481 9.7695 16.2653 9.64699C16.2825 9.52448 16.462 9.44843 16.6662 9.47713C16.7391 9.48737 16.8053 9.50958 16.8595 9.53948C16.8465 9.49647 16.8381 9.44908 16.8354 9.39908C16.8247 9.19317 16.9161 9.02101 17.0396 9.01453C17.1631 9.00806 17.272 9.16973 17.2828 9.37563C17.2867 9.44958 17.2774 9.51918 17.2582 9.57832C17.3043 9.57316 17.3543 9.57373 17.4058 9.58097C17.61 9.60967 17.7615 9.73224 17.7443 9.85475C17.7271 9.97726 17.5476 10.0533 17.3434 10.0246C17.1393 9.99591 16.9877 9.87334 17.0049 9.75083L17.006 9.74438L17.0055 9.74414L17.0047 9.75091ZM18.4269 10.3432C18.6089 10.44 18.8036 10.4299 18.8617 10.3207L18.8646 10.3148C18.8825 10.3337 18.9037 10.3474 18.9278 10.3548C19.0461 10.391 19.1909 10.2605 19.2512 10.0633C19.3114 9.8661 19.2644 9.67694 19.1461 9.64077C19.0278 9.6046 18.883 9.73512 18.8227 9.9323C18.8081 9.98005 18.7998 10.0273 18.7973 10.0721C18.7566 10.0255 18.7021 9.98211 18.6372 9.94761C18.4551 9.85081 18.2605 9.86089 18.2024 9.97012C18.1443 10.0794 18.2448 10.2464 18.4269 10.3432ZM11.0991 10.3889C10.917 10.4857 10.7223 10.4756 10.6643 10.3664C10.6632 10.3645 10.6623 10.3625 10.6613 10.3606C10.6434 10.3794 10.6223 10.3932 10.5982 10.4005C10.4799 10.4367 10.3351 10.3062 10.2748 10.109C10.2145 9.91184 10.2615 9.72267 10.3799 9.6865C10.4982 9.65033 10.6429 9.78085 10.7032 9.97803C10.7178 10.0258 10.7261 10.0731 10.7286 10.1178C10.7693 10.0713 10.8239 10.0278 10.8887 9.99334C11.0708 9.89655 11.2655 9.90662 11.3235 10.0159C11.3816 10.1251 11.2811 10.2921 11.0991 10.3889Z" fill="#C88A02"/>
<path fill-rule="evenodd" clip-rule="evenodd" d="M14.6484 5.43555H14.9595V5.6322H15.1632V5.94331H14.9595V6.56543H15.1632V6.87654H14.4424V6.56543H14.6484V5.94331H14.4424V5.6322H14.6484V5.43555Z" fill="#C88A02"/>
<rect x="14.5913" y="7.12549" width="0.597333" height="1.94133" fill="#C88A02"/>
<path d="M12.1869 7.45063L12.1843 7.59994C10.8602 7.57683 10.1006 7.77006 9.90783 8.15519C9.7085 8.55336 9.74556 9.03739 10.0249 9.61236L9.89054 9.67761C9.59254 9.06415 9.55184 8.5327 9.77429 8.08834C10.0033 7.63096 10.8068 7.42654 12.1869 7.45063Z" fill="white"/>
<path d="M12.4428 8.77468L12.3663 8.9029C12.0779 8.73072 11.9336 8.43688 11.9336 8.03195C11.9336 7.44998 12.2334 7.1087 12.8965 6.87516C13.3198 6.7261 13.8979 6.78722 14.6326 7.05359L14.5817 7.19398C13.8764 6.93827 13.3307 6.88058 12.9461 7.01601C12.3379 7.23023 12.0829 7.52046 12.0829 8.03195C12.0829 8.3873 12.2028 8.63136 12.4428 8.77468Z" fill="white"/>
<path d="M10.2132 9.38319L9.93146 9.48216C9.63908 8.64969 9.72258 8.08434 10.2222 7.84047C10.6624 7.62558 11.304 7.53812 12.1501 7.57241L12.138 7.87083C11.3369 7.83837 10.7409 7.91961 10.3532 8.10887C10.0249 8.26914 9.9648 8.67579 10.2132 9.38319Z" fill="#C88A02"/>
<path d="M13.5054 7.25155C12.8225 7.25155 12.5421 7.41786 12.3819 7.90891C12.2798 8.22184 12.3788 8.48893 12.6999 8.73824L12.5167 8.97414C12.1011 8.65136 11.9545 8.25605 12.098 7.81628C12.3021 7.19048 12.7028 6.95288 13.5054 6.95288C14.0315 6.95288 14.4413 7.09109 14.7266 7.37237L14.7711 7.41624V8.85619H14.4725V7.54389C14.2496 7.35032 13.9295 7.25155 13.5054 7.25155Z" fill="#C88A02"/>
<path d="M17.3985 7.5998L17.4011 7.74911C18.7253 7.726 19.4848 7.91923 19.6776 8.30436C19.877 8.70253 19.8399 9.18656 19.5606 9.76153L19.6949 9.82678C19.9929 9.21332 20.0336 8.68187 19.8112 8.23751C19.5822 7.78013 18.7787 7.57571 17.3985 7.5998Z" fill="white"/>
<path d="M16.9312 8.80569L17.0077 8.9339C17.2961 8.76172 17.4404 8.46789 17.4404 8.06296C17.4404 7.48098 17.1406 7.13971 16.4775 6.90616C16.0543 6.75711 15.4761 6.81822 14.7414 7.08459L14.7923 7.22499C15.4976 6.96927 16.0434 6.91159 16.4279 7.04702C17.0361 7.26123 17.2911 7.55146 17.2911 8.06296C17.2911 8.41831 17.1712 8.66236 16.9312 8.80569Z" fill="white"/>
<path d="M19.4655 9.5326L19.7473 9.63157C20.0396 8.79911 19.9561 8.23376 19.4565 7.98988C19.0163 7.77499 18.3747 7.68754 17.5286 7.72183L17.5407 8.02025C18.3418 7.98778 18.9378 8.06903 19.3255 8.25828C19.6539 8.41855 19.7139 8.8252 19.4655 9.5326Z" fill="#C88A02"/>
<path d="M16.1557 7.27474C16.8386 7.27474 17.119 7.44105 17.2792 7.9321C17.3813 8.24504 17.2823 8.51213 16.9612 8.76144L17.1444 8.99733C17.5601 8.67456 17.7066 8.27925 17.5631 7.83947C17.359 7.21367 16.9584 6.97607 16.1557 6.97607C15.6297 6.97607 15.2199 7.11428 14.9345 7.39557L14.89 7.43943V8.87938H15.1887V7.56708C15.4115 7.37352 15.7316 7.27474 16.1557 7.27474Z" fill="#C88A02"/>
<path opacity="0.3" fill-rule="evenodd" clip-rule="evenodd" d="M9.9624 12.3521H19.6691V21.0732C19.6691 21.0732 18.948 24.0001 14.8157 24.0001C10.6834 24.0001 9.9624 20.996 9.9624 20.996V12.3521Z" fill="#E1E5E8"/>
<mask id="mask4_31730_328" style="mask-type:luminance" maskUnits="userSpaceOnUse" x="9" y="12" width="11" height="12">
<path fill-rule="evenodd" clip-rule="evenodd" d="M9.9624 12.3521H19.6691V21.0732C19.6691 21.0732 18.948 24.0001 14.8157 24.0001C10.6834 24.0001 9.9624 20.996 9.9624 20.996V12.3521Z" fill="white"/>
</mask>
<g mask="url(#mask4_31730_328)">
<rect x="9.9624" y="17.728" width="4.928" height="5.824" fill="#FFC034"/>
<rect x="10.5601" y="18.0266" width="0.597333" height="5.52533" fill="#AD1619"/>
<rect x="12.6504" y="18.0266" width="0.597333" height="5.52533" fill="#AD1619"/>
<rect x="11.605" y="18.0266" width="0.597333" height="5.52533" fill="#AD1619"/>
<rect x="13.6953" y="18.0266" width="0.597333" height="5.52533" fill="#AD1619"/>
<rect x="9.9624" y="12.2026" width="4.928" height="5.67467" fill="#AD1619"/>
<rect x="14.7412" y="17.5786" width="4.928" height="5.67467" fill="#AD1619"/>
<rect x="14.7412" y="12.3521" width="5.22667" height="5.52533" fill="#F1F9FF"/>
<path fill-rule="evenodd" clip-rule="evenodd" d="M12.0537 12.8H12.5017V14.0389H12.8001V13.4195H13.2481V14.0389H13.6958V14.8133H13.2481V16.2071H13.6958V16.9814H11.0078V16.2071H11.4561V14.8133H11.0078V14.0389H11.3066V13.4195H11.7546V14.0389H12.0537V12.8Z" fill="#C88A02"/>
<path fill-rule="evenodd" clip-rule="evenodd" d="M17.1044 13.7688C17.0988 13.7706 17.0964 13.7714 17.1023 13.7735C17.1578 13.7935 17.2386 13.8613 17.3391 14.003C17.3001 14.0309 17.2348 14.0649 17.1509 14.0964C17.0701 14.1269 16.9804 14.1526 16.8903 14.173C16.8363 14.1852 16.7958 14.1926 16.776 14.1956L16.7823 14.2374C16.6835 14.1845 16.5775 14.0909 16.4623 13.9508C16.346 13.8095 16.2367 13.708 16.1273 13.6327C16.1055 13.6178 16.0776 13.6005 16.0509 13.5847L16.0651 13.5483L15.6488 13.3829C15.5369 13.6644 15.5263 13.7821 15.7112 13.9063C15.717 13.9102 15.7361 13.921 15.7596 13.9344L15.7596 13.9344C15.7988 13.9566 15.8502 13.9859 15.8733 14.0018C15.9475 14.0529 16.0261 14.1258 16.1163 14.2355C16.3514 14.5212 16.6002 14.6917 16.857 14.731L16.8877 14.9339C16.916 14.9296 16.9468 14.9243 16.9795 14.918C17.0382 15.0202 17.0939 15.1154 17.1465 15.2036C17.1343 15.2041 17.1223 15.205 17.1105 15.2062C16.8623 15.2319 16.7326 15.4335 16.8103 15.6898C16.838 15.7813 16.8733 15.8717 16.9229 15.9845L16.9737 16.1002C16.7654 16.0413 16.6556 16.0191 16.5696 16.0215C16.3426 16.0279 16.2607 16.1923 16.2906 16.3828L16.7332 16.3134C16.7397 16.355 16.6842 16.4664 16.5823 16.4693C16.615 16.4684 16.7317 16.4955 16.9615 16.563C17.2701 16.6536 17.5178 16.58 17.5001 16.2737C17.4959 16.2019 17.4742 16.1305 17.4343 16.0338C17.4143 15.9852 17.33 15.7974 17.333 15.8043C17.31 15.752 17.2909 15.7061 17.2748 15.6639C17.3238 15.6735 17.384 15.6887 17.4543 15.7093C17.4597 15.7109 17.4652 15.7125 17.4708 15.7142C17.4888 15.74 17.5061 15.7643 17.5228 15.7871C17.5906 15.8797 17.5942 15.9051 17.5786 15.9479C17.5719 15.9653 17.5664 15.9804 17.5623 15.9953C17.5533 16.0275 17.5502 16.0591 17.5563 16.0938C17.5735 16.1913 17.6415 16.2465 17.7744 16.308L17.8998 16.0369C17.8879 16.0315 17.8776 16.0264 17.8686 16.0218C17.8867 15.9604 17.8903 15.8997 17.8757 15.8351C17.9176 15.8443 17.9529 15.8488 17.9872 15.8488V15.4008C17.9727 15.4008 17.9437 15.3924 17.6882 15.3123C17.6481 15.2997 17.6136 15.2892 17.5803 15.2794C17.5647 15.2748 17.5494 15.2704 17.5344 15.2662C17.4583 15.1442 17.3735 15.0026 17.2802 14.8415C17.3241 14.8276 17.3689 14.8122 17.4141 14.7952C17.6477 14.7072 17.8341 14.595 17.9605 14.4334C18.1561 14.1834 18.1561 13.8677 17.9555 13.5815C17.6039 13.0799 17.1901 12.9309 16.8347 13.0728C16.7824 13.0937 16.7404 13.1178 16.7085 13.1414L17.1522 13.742C17.1353 13.7545 17.1223 13.762 17.1117 13.7662C17.109 13.7673 17.1065 13.7681 17.1044 13.7688Z" fill="#C37C9C"/>
<path d="M17.3047 13.06L17.6105 12.7327L18.2526 13.3324L17.9467 13.6598L17.3047 13.06Z" fill="#C88A02"/>
<path fill-rule="evenodd" clip-rule="evenodd" d="M19.1464 21.5199V18.2505H15.4131V21.4926L15.419 21.5178C15.608 22.3231 16.2516 22.7305 17.2798 22.7305C18.3069 22.7305 18.9504 22.3336 19.1402 21.5458L19.1464 21.5199ZM17.2795 22.2826C16.4546 22.2826 16.0041 22.0047 15.8608 21.4398V18.6986H18.6982V21.4658C18.5553 22.0123 18.1048 22.2826 17.2795 22.2826Z" fill="#FFC034"/>
<path fill-rule="evenodd" clip-rule="evenodd" d="M17.4342 18.5239H17.123V20.0061L15.8966 18.6722L15.6768 18.8744L16.7859 20.0807H15.7806V20.5287H16.5526H16.8105L15.677 21.7616L15.8968 21.9637L17.123 20.6301V22.3625H17.4342V20.7858L18.5172 21.9637L18.7371 21.7616L17.6035 20.5287H18.8684V20.0807H17.6281L18.7373 18.8744L18.5174 18.6722L17.4342 19.8504V18.5239Z" fill="#FFC034"/>
<path fill-rule="evenodd" clip-rule="evenodd" d="M17.9762 23.2569C17.9762 23.2569 14.8133 23.5055 14.8133 21.4656C14.8133 21.4656 14.7831 23.2569 11.4805 23.2569V24.8673H17.9762V23.2569Z" fill="#F1F9FF"/>
<path fill-rule="evenodd" clip-rule="evenodd" d="M14.8153 18.9228C15.4339 18.9228 15.9353 18.3879 15.9353 17.7281C15.9353 17.0683 15.4339 16.5334 14.8153 16.5334C14.1968 16.5334 13.6953 17.0683 13.6953 17.7281C13.6953 18.3879 14.1968 18.9228 14.8153 18.9228Z" fill="#005BBF" stroke="#AD1619" stroke-width="1.55556"/>
</g>
</g>
</g>
</svg>
