<svg width="24" height="24" viewBox="0 0 24 24" fill="none" xmlns="http://www.w3.org/2000/svg">
<path d="M5.58984 1C6.01608 1 6.45257 1.09769 6.82617 1.27344H6.8252C7.25125 1.47018 7.61666 1.76697 7.88379 2.16504L10.2041 5.43555H10.2031C10.4218 5.73775 10.5937 6.03549 10.7129 6.33887H10.7119C10.8507 6.66166 10.9297 6.99272 10.9297 7.32031C10.9296 7.75035 10.8049 8.16444 10.5742 8.54883L10.5732 8.54785C10.4093 8.84082 10.166 9.14511 9.86914 9.44238L9.87012 9.44336L9.31543 10.0215C9.4416 10.2255 9.66513 10.5453 10.0508 10.998C10.5372 11.5539 10.9911 12.0582 11.4443 12.5215C11.8857 12.9554 12.2689 13.3197 12.623 13.6318L12.9688 13.9277L12.9707 13.9287C13.4218 14.3086 13.7392 14.5276 13.9473 14.6504L14.5049 14.1016C14.821 13.7857 15.1353 13.5417 15.4482 13.377C16.0327 13.0156 16.7597 12.9392 17.4814 13.1934L17.626 13.249L17.627 13.25C17.8342 13.3377 18.0525 13.4488 18.2812 13.5918L18.5137 13.7451L18.5146 13.7461L21.8291 16.1025C22.1849 16.3429 22.4629 16.6465 22.6475 17.0059L22.7207 17.1631L22.7227 17.168C22.8826 17.5732 22.9599 17.9545 22.96 18.3398C22.96 18.8582 22.8408 19.3741 22.6162 19.8555C22.3958 20.3278 22.1215 20.7384 21.7744 21.1172C21.1826 21.7713 20.5328 22.2449 19.7734 22.5508C19.0535 22.8429 18.2721 23 17.4502 23C16.2803 23 15.0569 22.7206 13.8027 22.1904H13.8018C12.5822 21.6721 11.3565 20.9615 10.1641 20.1025L10.1621 20.1016C8.9825 19.2345 7.84305 18.2663 6.76465 17.208L6.7627 17.2061C5.69392 16.1272 4.72541 14.9873 3.86816 13.8174L3.86719 13.8154C3.10703 12.7547 2.47586 11.6912 1.99609 10.6514L1.7998 10.207C1.26918 8.94169 1.00001 7.70849 1 6.54004C1 5.72978 1.14525 4.95884 1.42676 4.23926L1.42773 4.23828C1.72203 3.49207 2.19339 2.80106 2.8291 2.20703C3.63855 1.41017 4.57801 1.00004 5.58984 1ZM5.58984 3C5.12175 3.00004 4.67128 3.20132 4.21484 3.64844L4.21094 3.65234C3.77598 4.05893 3.47831 4.49905 3.29297 4.97168L3.29199 4.97363C3.09506 5.46127 3 5.97918 3 6.54004C3.00001 7.43104 3.21133 8.40815 3.64062 9.42285H3.63965C4.0813 10.4631 4.70198 11.5463 5.49219 12.6328C6.28408 13.7217 7.1852 14.7815 8.17578 15.7822C9.167 16.7635 10.2372 17.676 11.3369 18.4785H11.3379C12.404 19.2584 13.4969 19.8875 14.5762 20.3389L14.5781 20.3398C16.2547 21.0556 17.7798 21.2035 19.0137 20.6895L19.0146 20.6885C19.4873 20.4938 19.9065 20.1972 20.293 19.7637L20.2959 19.7607C20.5078 19.5304 20.6739 19.282 20.8135 18.9844L20.8145 18.9814C20.9189 18.7638 20.9697 18.5409 20.9697 18.3203C20.9697 18.1967 20.9478 18.0725 20.8838 17.9268C20.8736 17.9066 20.8614 17.8838 20.8379 17.8555C20.8116 17.8237 20.7661 17.7797 20.6885 17.7266L20.6855 17.7236L17.3662 15.3643C17.2251 15.2655 17.0976 15.1903 16.9795 15.1328L16.8652 15.0811C16.8343 15.0684 16.8058 15.0563 16.7822 15.0459C16.7573 15.0349 16.7381 15.0265 16.7207 15.0195C16.6873 15.0062 16.6711 15.0029 16.6602 15.002C16.6459 15.0008 16.5937 14.9987 16.4414 15.0928L16.4316 15.0986L16.4219 15.1035C16.2574 15.1858 16.1 15.3141 15.9072 15.5068L15.9053 15.5078L15.1455 16.2578L15.1445 16.2588C14.6796 16.7118 13.9761 16.8147 13.4336 16.6143L13.4258 16.6113L13.4189 16.6084L13.1484 16.4883L13.1396 16.4844L13.1318 16.4805C12.8088 16.3072 12.4497 16.066 12.0635 15.7637L11.668 15.4404C11.1824 15.0257 10.6574 14.5409 10.0244 13.918L10.0215 13.915C9.52789 13.4114 9.03396 12.8772 8.52051 12.2832L8.51953 12.2822C8.04439 11.7262 7.69171 11.2404 7.46973 10.8281L7.46289 10.8164L7.45801 10.8027L7.33789 10.5029L7.33203 10.4883L7.32812 10.4727C7.26567 10.2332 7.24025 10.0801 7.24023 9.91016C7.24023 9.48749 7.39357 9.10436 7.68945 8.80664L8.43945 8.02637L8.44336 8.02344C8.63234 7.83446 8.7678 7.66097 8.85449 7.51367L8.85742 7.50879C8.91792 7.41039 8.92969 7.34497 8.92969 7.2998C8.92962 7.26691 8.91332 7.18219 8.86914 7.07617V7.0752C8.80897 6.93912 8.7109 6.77754 8.5791 6.59863L8.57617 6.59473L6.25586 3.31445V3.31348C6.18057 3.20855 6.09373 3.13799 5.98438 3.08691V3.08594C5.85326 3.02938 5.71886 3 5.58984 3Z" fill="#4640DE" stroke="#4640DE" stroke-width="0.5"/>
</svg>
